<svg xmlns="http://www.w3.org/2000/svg" version="1.1" xmlns:xlink="http://www.w3.org/1999/xlink" xmlns:svgjs="http://svgjs.dev/svgjs" width="1000" height="227" viewBox="0 0 1000 227"><g transform="matrix(1,0,0,1,-0.6060606060606233,-0.054722530251865464)"><svg viewBox="0 0 396 90" data-background-color="#ffffff" preserveAspectRatio="xMidYMid meet" height="227" width="1000" xmlns="http://www.w3.org/2000/svg" xmlns:xlink="http://www.w3.org/1999/xlink"><g id="tight-bounds" transform="matrix(1,0,0,1,0.2400000000000091,0.02169615736858077)"><svg viewBox="0 0 395.52 89.95660768526285" height="89.95660768526285" width="395.52"><g><svg viewBox="0 0 530.7188543020649 120.70607748691097" height="89.95660768526285" width="395.52"><g><rect width="5.00063108096" height="120.70607748691097" x="117.10756594110491" y="0" fill="#18216d" opacity="1" stroke-width="0" stroke="transparent" fill-opacity="1" class="rect-i$-0" data-fill-palette-color="primary" rx="1%" id="i$-0" data-palette-color="#18216d"></rect></g><g transform="matrix(1,0,0,1,135.19885430206492,0.30026387434554636)"><svg viewBox="0 0 395.52 120.10554973821988" height="120.10554973821988" width="395.52"><g id="textblocktransform"><svg viewBox="0 0 395.52 120.10554973821988" height="120.10554973821988" width="395.52" id="textblock"><g><svg viewBox="0 0 395.52 120.10554973821988" height="120.10554973821988" width="395.52"><g transform="matrix(1,0,0,1,0,0)"><svg width="395.52" viewBox="0.25 -35.75000000000001 258.7 75.2" height="120.10554973821988" data-palette-color="#18216d"><svg></svg><svg></svg><g class="undefined-text-0" data-fill-palette-color="primary" id="text-0"><path d="M27.9-31.8l-3.05 5.6c-0.233-0.233-0.657-0.55-1.27-0.95-0.62-0.4-1.37-0.783-2.25-1.15-0.887-0.367-1.847-0.693-2.88-0.98-1.033-0.28-2.083-0.42-3.15-0.42v0c-1.867 0-3.273 0.35-4.22 1.05-0.953 0.7-1.43 1.683-1.43 2.95v0c0 0.967 0.3 1.733 0.9 2.3 0.6 0.567 1.5 1.05 2.7 1.45 1.2 0.4 2.7 0.833 4.5 1.3v0c2.333 0.567 4.36 1.26 6.08 2.08 1.713 0.813 3.03 1.877 3.95 3.19 0.913 1.32 1.37 3.063 1.37 5.23v0c0 1.9-0.35 3.523-1.05 4.87-0.7 1.353-1.667 2.447-2.9 3.28-1.233 0.833-2.633 1.44-4.2 1.82-1.567 0.387-3.233 0.58-5 0.58v0c-1.767 0-3.533-0.183-5.3-0.55-1.767-0.367-3.467-0.893-5.1-1.58-1.633-0.68-3.133-1.503-4.5-2.47v0l3.05-5.95c0.3 0.3 0.833 0.693 1.6 1.18 0.767 0.48 1.7 0.96 2.8 1.44 1.1 0.487 2.3 0.897 3.6 1.23 1.3 0.333 2.617 0.5 3.95 0.5v0c1.867 0 3.283-0.317 4.25-0.95 0.967-0.633 1.45-1.533 1.45-2.7v0c0-1.067-0.383-1.9-1.15-2.5-0.767-0.6-1.833-1.127-3.2-1.58-1.367-0.447-2.983-0.937-4.85-1.47v0c-2.233-0.633-4.1-1.343-5.6-2.13-1.5-0.78-2.617-1.77-3.35-2.97-0.733-1.2-1.1-2.7-1.1-4.5v0c0-2.433 0.577-4.477 1.73-6.13 1.147-1.647 2.703-2.897 4.67-3.75 1.967-0.847 4.15-1.27 6.55-1.27v0c1.667 0 3.243 0.183 4.73 0.55 1.48 0.367 2.87 0.85 4.17 1.45 1.3 0.6 2.467 1.25 3.5 1.95zM30.1 0l13.1-35.5h7l13.05 35.5h-7.1l-3.3-8.85h-12.4l-3.25 8.85zM41.6-13.7h10l-4.9-14.65zM90.4-35.5v6.05h-11.35v29.45h-6.85v-29.45h-11.35v-6.05zM109.85 0.25v0c-2.833 0-5.24-0.477-7.22-1.43-1.987-0.947-3.587-2.253-4.8-3.92-1.22-1.667-2.113-3.56-2.68-5.68-0.567-2.113-0.85-4.32-0.85-6.62v0-18.1h6.9v18.1c0 1.467 0.143 2.89 0.43 4.27 0.28 1.387 0.753 2.63 1.42 3.73 0.667 1.1 1.55 1.967 2.65 2.6 1.1 0.633 2.467 0.95 4.1 0.95v0c1.667 0 3.06-0.327 4.18-0.98 1.113-0.647 1.997-1.52 2.65-2.62 0.647-1.1 1.12-2.343 1.42-3.73 0.3-1.38 0.45-2.787 0.45-4.22v0-18.1h6.85v18.1c0 2.433-0.29 4.717-0.87 6.85-0.587 2.133-1.503 4.007-2.75 5.62-1.253 1.62-2.863 2.887-4.83 3.8-1.967 0.92-4.317 1.38-7.05 1.38zM139.2 0h-6.9v-35.5h15.7c1.633 0 3.143 0.333 4.53 1 1.38 0.667 2.58 1.567 3.6 2.7 1.013 1.133 1.797 2.4 2.35 3.8 0.547 1.4 0.82 2.833 0.82 4.3v0c0 1.5-0.257 2.94-0.77 4.32-0.52 1.387-1.263 2.597-2.23 3.63-0.967 1.033-2.1 1.833-3.4 2.4v0l8.1 13.35h-7.6l-7.3-11.9h-6.9zM139.2-29.45v11.5h8.65c0.867 0 1.633-0.26 2.3-0.78 0.667-0.513 1.2-1.203 1.6-2.07 0.4-0.867 0.6-1.833 0.6-2.9v0c0-1.133-0.233-2.127-0.7-2.98-0.467-0.847-1.057-1.52-1.77-2.02-0.72-0.5-1.497-0.75-2.33-0.75v0zM178.45 0h-12.9v-35.5h12.9c3.867 0 7.1 0.79 9.7 2.37 2.6 1.587 4.55 3.72 5.85 6.4 1.3 2.687 1.95 5.663 1.95 8.93v0c0 3.6-0.717 6.733-2.15 9.4-1.433 2.667-3.457 4.733-6.07 6.2-2.62 1.467-5.713 2.2-9.28 2.2zM189-17.8v0c0-2.3-0.417-4.327-1.25-6.08-0.833-1.747-2.033-3.113-3.6-4.1-1.567-0.98-3.467-1.47-5.7-1.47v0h-6v23.4h6c2.267 0 4.183-0.51 5.75-1.53 1.567-1.013 2.76-2.413 3.58-4.2 0.813-1.78 1.22-3.787 1.22-6.02zM196.55 0l13.1-35.5h7l13.05 35.5h-7.1l-3.3-8.85h-12.4l-3.25 8.85zM208.05-13.7h10l-4.9-14.65zM226.35-35.5h7.5l8.75 16.7 8.9-16.7h7.45l-12.9 23.1v12.4h-6.85v-12.5z" fill="#18216d" fill-rule="nonzero" stroke="none" stroke-width="1" stroke-linecap="butt" stroke-linejoin="miter" stroke-miterlimit="10" stroke-dasharray="" stroke-dashoffset="0" font-family="none" font-weight="none" font-size="none" text-anchor="none" style="mix-blend-mode: normal" data-fill-palette-color="primary" opacity="1"></path><path transform="translate(0,39.15)" d="M0.25 0l13.1-35.5h7l13.05 35.5h-7.1l-3.3-8.85h-12.4l-3.25 8.85zM11.75-13.7h10l-4.9-14.65zM33.8-18v0c0-2.167 0.393-4.293 1.18-6.38 0.78-2.08 1.92-3.98 3.42-5.7 1.5-1.713 3.333-3.08 5.5-4.1 2.167-1.013 4.633-1.52 7.4-1.52v0c3.267 0 6.093 0.717 8.48 2.15 2.38 1.433 4.153 3.3 5.32 5.6v0l-5.3 3.65c-0.6-1.333-1.383-2.393-2.35-3.18-0.967-0.78-2-1.33-3.1-1.65-1.1-0.313-2.183-0.47-3.25-0.47v0c-1.733 0-3.24 0.35-4.52 1.05-1.287 0.7-2.363 1.617-3.23 2.75-0.867 1.133-1.51 2.4-1.93 3.8-0.413 1.4-0.62 2.8-0.62 4.2v0c0 1.567 0.25 3.073 0.75 4.52 0.5 1.453 1.207 2.737 2.12 3.85 0.92 1.12 2.023 2.003 3.31 2.65 1.28 0.653 2.687 0.98 4.22 0.98v0c1.1 0 2.217-0.183 3.35-0.55 1.133-0.367 2.183-0.95 3.15-1.75 0.967-0.8 1.717-1.833 2.25-3.1v0l5.65 3.25c-0.7 1.767-1.843 3.267-3.43 4.5-1.58 1.233-3.353 2.167-5.32 2.8-1.967 0.633-3.917 0.95-5.85 0.95v0c-2.533 0-4.85-0.527-6.95-1.58-2.1-1.047-3.907-2.447-5.42-4.2-1.52-1.747-2.703-3.713-3.55-5.9-0.853-2.18-1.28-4.387-1.28-6.62zM66.3 0l13.1-35.5h7l13.05 35.5h-7.1l-3.3-8.85h-12.4l-3.25 8.85zM77.8-13.7h10l-4.9-14.65zM116.25 0h-12.9v-35.5h12.9c3.867 0 7.1 0.79 9.7 2.37 2.6 1.587 4.55 3.72 5.85 6.4 1.3 2.687 1.95 5.663 1.95 8.93v0c0 3.6-0.717 6.733-2.15 9.4-1.433 2.667-3.457 4.733-6.07 6.2-2.62 1.467-5.713 2.2-9.28 2.2zM126.8-17.8v0c0-2.3-0.417-4.327-1.25-6.08-0.833-1.747-2.033-3.113-3.6-4.1-1.567-0.98-3.467-1.47-5.7-1.47v0h-6v23.4h6c2.267 0 4.183-0.51 5.75-1.53 1.567-1.013 2.76-2.413 3.58-4.2 0.813-1.78 1.22-3.787 1.22-6.02zM146.05-6.05h17.75v6.05h-24.65v-35.5h24.2v6.05h-17.3v8.55h14.95v5.6h-14.95zM205.05 0h-6.9v-23.3l-9.1 17.35h-3.85l-9.1-17.35v23.3h-6.9v-35.5h7.4l10.5 20.2 10.6-20.2h7.35zM208.95-35.5h7.5l8.75 16.7 8.9-16.7h7.45l-12.9 23.1v12.4h-6.85v-12.5z" fill="#18216d" fill-rule="nonzero" stroke="none" stroke-width="1" stroke-linecap="butt" stroke-linejoin="miter" stroke-miterlimit="10" stroke-dasharray="" stroke-dashoffset="0" font-family="none" font-weight="none" font-size="none" text-anchor="none" style="mix-blend-mode: normal" data-fill-palette-color="primary" opacity="1"></path></g></svg></g></svg></g></svg></g></svg></g><g transform="matrix(1,0,0,1,0,0.30026387434554636)"><svg viewBox="0 0 104.0169086611049 120.10554973821988" height="120.10554973821988" width="104.0169086611049"><g><svg xmlns="http://www.w3.org/2000/svg" xmlns:xlink="http://www.w3.org/1999/xlink" version="1.1" x="0" y="0" viewBox="9.547 3.29 80.906 93.41999999999999" enable-background="new 0 0 100 100" xml:space="preserve" height="120.10554973821988" width="104.0169086611049" class="icon-icon-0" data-fill-palette-color="accent" id="icon-0"><g fill="#18216d" data-fill-palette-color="accent"><path d="M31.112 39.094v21.812L49.999 71.81l18.89-10.903V39.094l-18.89-10.905L31.112 39.094zM60.925 56.308l-10.926 6.307-10.924-6.307V43.692l10.924-6.308 10.926 6.308V56.308z" fill="#18216d" data-fill-palette-color="accent"></path><path d="M49.999 3.29L9.547 26.646v46.709L49.999 96.71l40.454-23.355V26.646L49.999 3.29zM82.19 68.584L49.999 87.169 17.811 68.584v-37.17l32.188-18.585L82.19 31.414V68.584z" fill="#18216d" data-fill-palette-color="accent"></path><path d="M20.368 32.89v34.218l29.631 17.108 29.634-17.108V32.89L49.999 15.782 20.368 32.89zM71.446 62.383l-21.447 12.38-21.444-12.38V37.618l21.444-12.382 21.447 12.382V62.383z" fill="#18216d" data-fill-palette-color="accent"></path></g></svg></g></svg></g></svg></g><defs></defs></svg><rect width="395.52" height="89.95660768526285" fill="none" stroke="none" visibility="hidden"></rect></g></svg></g></svg>