<svg version="1.1" id="Layer_1" xmlns="http://www.w3.org/2000/svg" xmlns:xlink="http://www.w3.org/1999/xlink" x="0px" y="0px"
	 width="100%" viewBox="0 0 1458 398" enable-background="new 0 0 1458 398" xml:space="preserve">
<path fill="#FEFEFF" opacity="1.000000" stroke="none" 
	d="
M979.000000,399.000000 
	C654.166687,399.000000 329.833374,398.992432 5.500087,399.093109 
	C1.751099,399.094269 0.902469,398.249695 0.905739,394.499969 
	C1.018836,264.833435 1.018831,135.166733 0.905766,5.500164 
	C0.902496,1.750813 1.750678,0.906361 5.499937,0.907121 
	C488.499908,1.005087 971.499878,1.005084 1454.499878,0.907162 
	C1458.248535,0.906402 1459.097534,1.750012 1459.094360,5.499913 
	C1458.981201,135.166473 1458.981201,264.833191 1459.094238,394.499725 
	C1459.097534,398.248749 1458.250122,399.096527 1454.500122,399.093933 
	C1296.166870,398.984528 1137.833374,399.000000 979.000000,399.000000 
z"/>
<path fill="#1C236A" opacity="1.000000" stroke="none" 
	d="
M200.491241,129.679474 
	C196.964447,176.429871 161.203537,209.764435 115.617355,208.989456 
	C75.422806,208.306137 40.083187,175.661041 35.877930,136.480469 
	C31.270378,93.551666 59.153496,54.923923 99.802391,46.058186 
	C151.768417,34.724125 198.856949,72.306969 200.346283,126.408279 
	C200.797516,127.636574 200.932510,128.446609 200.491241,129.679474 
z"/>
<path fill="#1C226A" opacity="1.000000" stroke="none" 
	d="
M1118.355103,129.606842 
	C1114.628906,166.816711 1096.232300,192.900070 1060.899292,204.802109 
	C1009.435669,222.137772 956.969727,185.672714 952.952332,130.384277 
	C952.333801,129.252899 952.213074,128.475250 952.638489,127.272881 
	C954.186707,92.869743 969.289368,67.100609 1000.121460,52.127769 
	C1054.467529,25.736002 1116.625488,64.960983 1118.099854,126.465546 
	C1118.637329,127.634453 1118.791870,128.412308 1118.355103,129.606842 
z"/>
<path fill="#1B226A" opacity="1.000000" stroke="none" 
	d="
M1252.644043,127.265411 
	C1254.768311,122.357765 1253.937866,117.430626 1254.743042,112.696358 
	C1261.601929,72.368935 1296.676636,43.379845 1338.178955,44.008457 
	C1377.833862,44.609089 1412.360962,75.283279 1417.853638,114.792030 
	C1424.066040,159.478073 1392.674805,202.032745 1349.110229,207.982254 
	C1301.942505,214.423859 1260.355591,183.260315 1254.205566,136.847794 
	C1253.921875,134.706985 1253.798950,132.544861 1253.275269,130.125168 
	C1252.394653,129.197678 1252.243652,128.448654 1252.644043,127.265411 
z"/>
<path fill="#1C226A" opacity="1.000000" stroke="none" 
	d="
M646.687622,127.275284 
	C647.912537,98.314110 659.097229,74.743088 683.023071,58.611584 
	C709.787415,40.566334 738.590576,38.507622 767.280334,53.317142 
	C796.341309,68.318275 810.962036,93.245346 812.167847,126.427856 
	C812.678955,127.619125 812.824463,128.410660 812.388916,129.617798 
	C808.957458,169.976517 783.602722,199.406815 745.412476,207.472946 
	C699.682983,217.131439 653.084167,183.567398 647.894592,137.235275 
	C647.653809,135.085114 647.390503,132.937485 647.030518,130.373535 
	C646.395020,129.256027 646.242249,128.483124 646.687622,127.275284 
z"/>
<path fill="#1B226A" opacity="1.000000" stroke="none" 
	d="
M340.735901,127.273636 
	C341.916077,101.931808 350.621582,80.308754 370.013733,64.068405 
	C394.456055,43.598743 422.412109,38.245590 452.290375,49.282906 
	C481.755585,60.167641 499.199158,82.067978 505.124756,113.017647 
	C505.944946,117.301521 506.087830,121.614716 506.258240,126.391571 
	C506.744049,127.607536 506.891296,128.413879 506.435425,129.641815 
	C503.301697,169.832291 477.273987,199.890793 439.024963,207.621109 
	C392.723053,216.978989 346.511719,182.777283 341.851379,135.706787 
	C341.687347,134.050247 341.460449,132.399918 341.134460,130.350296 
	C340.390717,129.274261 340.243988,128.496048 340.735901,127.273636 
z"/>
<path fill="#EE8345" opacity="1.000000" stroke="none" 
	d="
M812.634155,129.972885 
	C812.135071,129.196793 812.092590,128.417587 812.139893,127.256584 
	C858.792542,126.889336 905.355347,126.903908 952.375671,126.914780 
	C952.882996,127.674652 952.932861,128.438232 952.921143,129.579926 
	C906.269958,129.961975 859.680359,129.965881 812.634155,129.972885 
z"/>
<path fill="#EE8345" opacity="1.000000" stroke="none" 
	d="
M340.488953,126.919128 
	C341.020081,127.678810 341.085297,128.439865 341.078247,129.577393 
	C294.402283,129.975327 247.798538,129.996750 200.746307,130.036316 
	C200.225021,129.245270 200.152191,128.436111 200.229340,127.244446 
	C246.927231,126.881447 293.475128,126.900970 340.488953,126.919128 
z"/>
<path fill="#EE8345" opacity="1.000000" stroke="none" 
	d="
M506.682281,130.002151 
	C506.174622,129.209610 506.120270,128.409683 506.188660,127.224854 
	C552.862854,126.866470 599.414307,126.892998 646.427002,126.917282 
	C646.945374,127.677933 647.002502,128.440842 646.991455,129.581085 
	C600.327393,129.970535 553.731506,129.982651 506.682281,130.002151 
z"/>
<path fill="#EE8345" opacity="1.000000" stroke="none" 
	d="
M1252.374634,126.914970 
	C1252.884766,127.647430 1252.937256,128.383575 1252.969604,129.488678 
	C1208.319458,129.891968 1163.689575,129.926285 1118.601196,129.959747 
	C1118.107544,129.194962 1118.072388,128.431015 1118.102539,127.288666 
	C1162.750854,126.913063 1207.333984,126.915848 1252.374634,126.914970 
z"/>
<path fill="#6032CC" opacity="1.000000" stroke="none" 
	d="
M1324.838135,256.137634 
	C1324.572144,254.791489 1323.120361,253.362305 1325.145874,253.053192 
	C1327.161255,252.745651 1329.571533,252.156708 1330.646973,254.976456 
	C1332.362305,259.473877 1334.101318,263.962372 1335.842407,268.449921 
	C1336.418945,269.935852 1337.033203,271.407104 1338.003784,273.809265 
	C1340.284668,267.920654 1342.219482,262.911896 1344.166382,257.907837 
	C1344.646851,256.672607 1345.011841,255.356812 1345.700562,254.245804 
	C1347.040894,252.083298 1349.423584,252.568634 1351.098633,253.149689 
	C1353.020020,253.816177 1351.291748,255.444443 1350.901733,256.447784 
	C1347.955444,264.027344 1344.843384,271.542267 1341.839233,279.099731 
	C1341.116943,280.916931 1340.331543,282.141418 1337.973145,282.113953 
	C1335.682251,282.087311 1334.824707,281.045105 1334.080811,279.146973 
	C1331.113403,271.575256 1328.017944,264.053772 1324.838135,256.137634 
z"/>
<path fill="#5F31CC" opacity="1.000000" stroke="none" 
	d="
M1041.945557,269.860474 
	C1042.470825,271.303589 1042.879639,272.387604 1043.515259,274.072968 
	C1045.828003,268.096191 1047.936035,262.625824 1050.065674,257.163879 
	C1050.485840,256.086212 1050.807861,254.901947 1051.492065,254.010071 
	C1052.831299,252.264359 1054.965698,252.542358 1056.515503,253.211044 
	C1058.166138,253.923233 1056.854370,255.520996 1056.426880,256.601013 
	C1053.372070,264.317078 1050.190796,271.983215 1047.158691,279.707977 
	C1046.522461,281.328949 1045.716064,282.184631 1043.903076,282.044861 
	C1042.428589,281.931152 1040.931519,282.235718 1040.186768,280.363617 
	C1036.638672,271.444580 1033.026611,262.551056 1029.405640,253.569931 
	C1033.545898,252.114761 1035.832642,252.967651 1037.050659,256.938599 
	C1038.361572,261.212646 1040.213257,265.320831 1041.945557,269.860474 
z"/>
<path fill="#5828CA" opacity="1.000000" stroke="none" 
	d="
M734.444458,267.973755 
	C734.443665,271.296387 734.391296,274.128082 734.460083,276.956848 
	C734.509216,278.973969 734.406006,280.510742 731.654968,280.494904 
	C729.226685,280.480896 728.497192,279.592407 728.529053,277.253265 
	C728.633423,269.595856 728.597290,261.935974 728.548340,254.277435 
	C728.535522,252.274521 729.091003,251.238297 731.361938,251.197464 
	C733.847290,251.152771 734.524231,252.228088 734.471680,254.495529 
	C734.371399,258.822113 734.443909,263.152649 734.444458,267.973755 
z"/>
<path fill="#673ACE" opacity="1.000000" stroke="none" 
	d="
M1020.312561,273.906708 
	C1020.313416,267.759827 1020.386719,262.096802 1020.280457,256.437195 
	C1020.235596,254.046768 1020.710266,252.764526 1023.538635,252.802689 
	C1026.264526,252.839478 1026.394775,254.267868 1026.381104,256.303314 
	C1026.331665,263.629791 1026.340576,270.956940 1026.376465,278.283600 
	C1026.386719,280.382050 1026.552856,282.150177 1023.421692,282.136780 
	C1020.460938,282.124115 1020.166626,280.647217 1020.299194,278.387604 
	C1020.377136,277.060028 1020.312744,275.724121 1020.312561,273.906708 
z"/>
<path fill="#5C5B5D" opacity="1.000000" stroke="none" 
	d="
M1079.386719,364.093292 
	C1077.929688,365.206055 1076.925903,365.089600 1076.816772,363.385559 
	C1076.699585,361.559479 1076.786499,359.721222 1076.738281,357.889526 
	C1076.685791,355.893036 1076.786621,353.388489 1074.080444,353.427307 
	C1071.701050,353.461426 1071.769043,355.832123 1071.714355,357.664337 
	C1071.664795,359.329254 1071.716431,360.997131 1071.673706,362.662415 
	C1071.648071,363.659393 1071.612061,364.789551 1070.239624,364.830780 
	C1068.786255,364.874451 1068.839844,363.691345 1068.817139,362.716370 
	C1068.766602,360.551331 1068.812378,358.383820 1068.749634,356.219330 
	C1068.708252,354.798645 1068.250488,353.395477 1066.608276,353.378998 
	C1064.846680,353.361328 1063.985840,354.575500 1063.977783,356.339417 
	C1063.967896,358.505402 1063.973389,360.671631 1063.939453,362.837250 
	C1063.923218,363.869446 1063.800903,364.871552 1062.382324,364.852112 
	C1061.339844,364.837799 1060.887329,364.206116 1060.879395,363.278351 
	C1060.849365,359.780579 1060.080933,356.034943 1061.083130,352.852753 
	C1062.123047,349.550964 1065.978516,351.449951 1068.565308,351.155182 
	C1069.642456,351.032410 1070.653809,351.990845 1072.195435,351.535828 
	C1077.625000,349.933258 1079.485596,351.477051 1079.627075,357.216705 
	C1079.680420,359.379150 1079.575684,361.545502 1079.386719,364.093292 
z"/>
<path fill="#191919" opacity="1.000000" stroke="none" 
	d="
M439.500916,360.039886 
	C439.431366,357.311096 439.483063,354.978790 439.319397,352.661652 
	C439.222900,351.295715 438.711334,350.045135 436.936981,350.042358 
	C435.213257,350.039673 434.558746,351.268738 434.399872,352.591522 
	C434.163361,354.560364 434.316193,356.572845 434.209503,358.561737 
	C434.153198,359.610779 434.748535,361.230316 432.991180,361.312439 
	C430.888733,361.410675 431.424866,359.620239 431.378479,358.390900 
	C431.309601,356.564392 431.390259,354.730988 431.285095,352.907532 
	C431.208221,351.574432 431.042694,350.113495 429.210144,350.074951 
	C427.383942,350.036530 426.447662,351.151428 426.365112,352.857880 
	C426.252747,355.180634 426.333435,357.512177 426.290558,359.839172 
	C426.273102,360.785645 425.792603,361.451233 424.770294,361.342316 
	C424.006134,361.260925 423.728943,360.605865 423.726044,359.902832 
	C423.711670,356.411499 422.898529,352.642944 423.956177,349.508301 
	C424.970795,346.501160 428.950409,347.495819 431.288513,348.091400 
	C433.000183,348.527405 434.025604,348.510010 435.605347,347.946991 
	C439.120575,346.694122 441.542145,348.077972 441.948761,351.895996 
	C442.229004,354.527679 442.186859,357.219421 442.012390,359.866089 
	C441.861328,362.157532 440.718567,361.770599 439.500916,360.039886 
z"/>
<path fill="#673ACE" opacity="1.000000" stroke="none" 
	d="
M717.336060,251.375519 
	C720.936157,250.679184 722.205078,251.812729 722.100220,255.229858 
	C721.876099,262.534637 721.980957,269.851593 722.060669,277.162354 
	C722.084351,279.337219 721.644714,280.578674 719.087830,280.576874 
	C716.563416,280.575104 715.962952,279.405029 716.096130,277.190826 
	C716.610657,268.639526 715.124268,260.023224 717.336060,251.375519 
z"/>
<path fill="#673ACE" opacity="1.000000" stroke="none" 
	d="
M740.928833,275.742981 
	C740.928772,268.465637 740.980042,261.657257 740.900757,254.850403 
	C740.873779,252.536270 741.227844,251.061981 744.098572,251.126373 
	C746.842468,251.187881 746.873291,252.787460 746.865112,254.752823 
	C746.835449,261.892578 746.868469,269.032562 746.845276,276.172333 
	C746.838562,278.237030 747.502014,280.585144 743.921082,280.588165 
	C740.399414,280.591156 740.946655,278.328796 740.928833,275.742981 
z"/>
<path fill="#6032CC" opacity="1.000000" stroke="none" 
	d="
M414.920319,271.903290 
	C414.920410,265.258118 414.984924,259.100616 414.885864,252.945786 
	C414.851013,250.778931 415.178040,249.552750 417.810699,249.616852 
	C420.275146,249.676895 420.885681,250.646423 420.851318,252.932358 
	C420.741241,260.251892 420.777771,267.574371 420.830017,274.895172 
	C420.846527,277.211670 420.956573,279.110626 417.583832,279.016235 
	C414.216003,278.921967 415.042633,276.729675 414.929474,274.887360 
	C414.878571,274.058533 414.920532,273.223969 414.920319,271.903290 
z"/>
<path fill="#673ACE" opacity="1.000000" stroke="none" 
	d="
M121.037949,267.973938 
	C121.036423,270.958374 120.974075,273.449768 121.052536,275.936737 
	C121.115532,277.933624 120.542900,278.974091 118.270981,279.009186 
	C115.869789,279.046265 115.062851,278.136383 115.088058,275.802429 
	C115.172295,268.002899 115.179863,260.201202 115.084007,252.401947 
	C115.055458,250.079132 116.191238,249.648010 118.145790,249.631058 
	C120.227417,249.613007 121.117188,250.356964 121.069221,252.542755 
	C120.960014,257.519348 121.036758,262.499969 121.037949,267.973938 
z"/>
<path fill="#5C2DCB" opacity="1.000000" stroke="none" 
	d="
M427.088562,261.022400 
	C427.089172,258.033783 427.184662,255.536438 427.062134,253.049820 
	C426.952942,250.834381 427.523773,249.737640 430.056702,249.714081 
	C432.572571,249.690689 433.099457,250.708420 433.069794,252.959488 
	C432.969177,260.602356 433.001862,268.247589 433.050629,275.891479 
	C433.062744,277.791290 432.821075,279.046661 430.399658,278.976135 
	C428.239471,278.913239 426.967682,278.565338 427.047577,275.974518 
	C427.196075,271.159912 427.089142,266.337494 427.088562,261.022400 
z"/>
<path fill="#5C5B5D" opacity="1.000000" stroke="none" 
	d="
M1333.145996,365.051147 
	C1326.984375,362.968658 1325.669434,359.859467 1329.293457,355.594330 
	C1330.827881,353.788330 1330.283081,352.440643 1330.076782,350.699554 
	C1329.793579,348.308655 1330.743896,346.522217 1333.153931,345.665222 
	C1335.393921,344.868713 1337.397095,345.198975 1339.139648,346.811584 
	C1339.888916,347.504944 1340.576416,348.486877 1339.944946,349.414062 
	C1339.183960,350.531036 1338.231079,349.932983 1337.522461,349.104919 
	C1336.424316,347.821503 1335.080078,347.088318 1333.703003,348.409271 
	C1332.174683,349.875366 1332.966431,351.457764 1334.129883,352.791504 
	C1335.217896,354.038757 1336.392212,355.211884 1337.548218,356.398254 
	C1338.689331,357.569153 1339.810791,358.691010 1340.464844,355.983398 
	C1340.679932,355.092926 1341.458984,354.557007 1342.368042,354.885712 
	C1343.383057,355.252716 1343.048706,356.234863 1342.969116,357.012329 
	C1342.535522,361.250061 1342.527344,361.249237 1344.714355,364.953491 
	C1340.832642,362.568848 1337.211548,364.162201 1333.145996,365.051147 
z"/>
<path fill="#5C5B5D" opacity="1.000000" stroke="none" 
	d="
M1038.965332,361.674927 
	C1038.964478,359.885010 1038.964111,358.554688 1038.964478,357.224365 
	C1038.966187,351.043640 1041.055420,349.537964 1047.186157,351.388977 
	C1047.906616,351.606537 1048.349609,352.231689 1049.365601,352.049683 
	C1056.872925,350.704895 1057.713379,351.463348 1057.762451,359.211243 
	C1057.765503,359.710083 1057.855835,360.230530 1057.745728,360.703827 
	C1057.412598,362.137848 1058.734497,364.693298 1056.266479,364.706085 
	C1053.747192,364.719086 1055.128784,362.157043 1054.784668,360.738281 
	C1054.175171,358.223877 1056.303711,353.706268 1052.598511,353.616058 
	C1048.175171,353.508392 1050.596069,358.220123 1049.928955,360.799133 
	C1049.562378,362.216431 1050.885254,364.753326 1048.369141,364.737213 
	C1045.846069,364.721100 1047.185913,362.182709 1046.851196,360.756744 
	C1046.256348,358.222778 1048.169678,353.696045 1044.618164,353.614471 
	C1040.232666,353.513733 1042.529419,358.203064 1041.918457,360.815613 
	C1041.582520,362.252167 1042.838135,364.560486 1040.263916,364.784882 
	C1038.540527,364.935089 1039.158813,363.160736 1038.965332,361.674927 
z"/>
<path fill="#1D1D1D" opacity="1.000000" stroke="none" 
	d="
M379.902222,321.957153 
	C377.219086,322.190277 375.601105,321.968964 375.812653,318.952057 
	C376.056030,315.481476 375.689453,311.967865 375.937958,308.498016 
	C376.078247,306.540070 374.465485,303.399445 377.089264,302.817993 
	C380.345947,302.096222 384.064178,301.835663 387.226013,303.923615 
	C388.425629,304.715759 389.371246,306.618439 388.765350,307.317169 
	C385.189911,311.440491 392.143921,316.140442 387.865692,320.048584 
	C385.693939,322.032440 383.021637,321.955811 379.902222,321.957153 
z"/>
<path fill="#515052" opacity="1.000000" stroke="none" 
	d="
M1361.303223,361.690552 
	C1360.574829,360.741455 1360.110840,360.049774 1359.589111,359.404907 
	C1358.789917,358.417450 1358.291260,356.812653 1356.628174,357.214722 
	C1354.793457,357.658264 1355.541016,359.345520 1355.381836,360.554443 
	C1355.295776,361.208038 1355.398193,361.884277 1355.350342,362.545563 
	C1355.281982,363.489868 1355.512817,364.712769 1354.098511,364.827087 
	C1352.705811,364.939606 1352.553223,363.828888 1352.548096,362.811127 
	C1352.522827,357.826996 1352.517456,352.842560 1352.557129,347.858643 
	C1352.562012,347.239197 1352.731567,346.184021 1353.070312,346.071838 
	C1356.492310,344.938446 1360.009033,345.032898 1363.091064,346.841003 
	C1365.631470,348.331421 1366.160522,351.652191 1364.365967,353.343292 
	C1360.619507,356.873657 1363.089233,359.141357 1365.015747,361.822144 
	C1365.590942,362.622498 1366.063843,363.496216 1366.638306,364.424469 
	C1363.735229,365.822601 1362.824341,363.518555 1361.303223,361.690552 
z"/>
<path fill="#5A5A5B" opacity="1.000000" stroke="none" 
	d="
M1006.252747,361.204987 
	C1008.120239,361.503326 1009.631714,361.608978 1011.070190,361.990051 
	C1012.765625,362.439209 1013.409790,363.745422 1013.216370,365.450500 
	C1012.889465,368.332977 1008.980103,370.506897 1005.263794,369.651001 
	C1002.271545,368.961914 999.852600,367.910400 1001.589600,363.807251 
	C1002.490845,361.678406 1002.851868,359.186096 1001.938782,356.661469 
	C1001.131653,354.429779 1001.735779,352.259308 1004.193787,351.277222 
	C1007.155762,350.093811 1010.120850,351.137360 1012.949341,351.901947 
	C1013.973572,352.178894 1010.861389,358.697601 1009.077271,359.419891 
	C1007.891602,359.899902 1006.612366,360.148773 1005.379150,360.515106 
	C1005.376282,360.515930 1005.403870,360.750000 1005.471619,360.828003 
	C1005.578308,360.951111 1005.731140,361.034180 1006.252747,361.204987 
z"/>
<path fill="#5A5A5B" opacity="1.000000" stroke="none" 
	d="
M1109.916016,350.849548 
	C1112.039307,351.189819 1113.790771,351.494965 1115.607544,351.811493 
	C1113.783203,355.881714 1113.449829,360.979584 1107.346802,360.919250 
	C1108.960205,361.183441 1110.576904,361.429443 1112.186035,361.716949 
	C1113.764893,361.999023 1115.036987,362.644073 1115.239136,364.475739 
	C1115.421509,366.127930 1114.789429,367.436005 1113.460815,368.344543 
	C1110.739258,370.205536 1107.798218,370.296600 1104.937134,368.844879 
	C1102.018188,367.363861 1103.493896,365.183167 1103.906006,362.872589 
	C1104.191772,361.269836 1104.841797,359.567108 1104.315308,357.624664 
	C1102.943848,352.565399 1103.907715,351.522278 1109.916016,350.849548 
z"/>
<path fill="#5A5A5B" opacity="1.000000" stroke="none" 
	d="
M93.190353,309.315216 
	C90.406136,312.392181 87.793869,314.996765 83.367371,314.965698 
	C80.861397,314.948059 82.194595,317.522736 81.893410,318.941406 
	C81.639366,320.138031 82.267303,321.853424 80.205513,321.864746 
	C78.149467,321.876007 78.540627,320.177124 78.517647,318.952118 
	C78.455658,315.646545 78.199959,312.303131 78.596214,309.044708 
	C78.867287,306.815613 76.508041,303.045258 80.686913,302.602081 
	C84.607956,302.186249 89.190575,301.458679 91.487877,306.376678 
	C91.766380,306.972870 92.042313,307.570282 92.658463,308.333435 
	C93.098526,308.676636 93.199554,308.853455 93.190353,309.315216 
z"/>
<path fill="#1D1D1D" opacity="1.000000" stroke="none" 
	d="
M369.205292,356.312286 
	C366.205872,356.223938 366.151642,358.460846 365.389679,359.998627 
	C364.883911,361.019287 364.139832,361.703125 363.055695,361.333252 
	C361.476379,360.794464 362.539703,359.696075 362.838379,358.918579 
	C364.743286,353.960052 366.731812,349.033691 368.652100,344.080994 
	C369.112122,342.894501 369.699493,342.030121 371.138184,342.105865 
	C372.346039,342.169525 372.810333,342.960327 373.197052,343.945709 
	C375.137970,348.890778 377.134613,353.814209 379.037537,358.773682 
	C379.338440,359.557922 380.322052,360.664856 378.865692,361.281433 
	C377.750916,361.753387 376.773315,361.064911 376.552521,360.022491 
	C375.696259,355.979980 372.749237,356.050079 369.205292,356.312286 
z"/>
<path fill="#515052" opacity="1.000000" stroke="none" 
	d="
M124.849182,355.880432 
	C124.723587,352.318817 124.571777,349.161530 124.637154,346.008728 
	C124.664803,344.675568 123.859016,342.340515 125.901062,342.330872 
	C128.438705,342.318817 127.267036,344.834778 127.402718,346.272888 
	C127.589249,348.250122 127.384399,350.260742 127.472450,352.251526 
	C127.620354,355.595123 128.253555,359.003082 132.496124,358.827911 
	C136.337402,358.669281 136.997192,355.541809 136.966263,352.286285 
	C136.939438,349.461395 136.958481,346.635529 137.003174,343.810852 
	C137.016785,342.951111 137.281693,342.148987 138.380127,342.174438 
	C139.354996,342.197052 139.965500,342.781616 139.961700,343.716614 
	C139.943588,348.183502 140.707458,352.716187 139.373215,357.088531 
	C138.431305,360.175171 135.879715,361.446259 132.845612,361.603180 
	C128.947128,361.804810 126.061012,360.288330 124.849182,355.880432 
z"/>
<path fill="#5C5B5D" opacity="1.000000" stroke="none" 
	d="
M727.809937,352.132080 
	C723.297302,351.622375 724.365784,354.683380 723.985779,357.015533 
	C723.658691,359.023346 725.406372,362.749969 722.514587,362.667694 
	C719.686340,362.587219 721.686462,358.809753 721.111694,356.755341 
	C720.982117,356.292236 721.092468,355.761932 721.092712,355.262573 
	C721.095398,349.892914 723.829895,347.689453 728.907288,349.583313 
	C730.724915,350.261292 731.800659,349.999512 733.407288,349.434998 
	C736.709839,348.274658 739.090515,349.806213 739.712891,353.101685 
	C740.199585,355.678558 739.892151,358.406250 739.927917,361.067078 
	C739.942871,362.179382 739.638000,363.069977 738.282532,362.975769 
	C736.868896,362.877533 736.935120,361.776001 736.918823,360.790955 
	C736.888550,358.960297 736.937500,357.127563 736.873230,355.298492 
	C736.812500,353.568787 736.591187,351.751251 734.269714,351.856110 
	C732.316895,351.944305 732.022156,353.555908 731.971619,355.124542 
	C731.912720,356.953979 731.939148,358.786102 731.923889,360.617035 
	C731.913818,361.827393 731.877991,363.098511 730.170471,362.948334 
	C728.715881,362.820435 729.095337,361.578064 728.981018,360.660004 
	C728.637817,357.903412 729.750000,355.007660 727.809937,352.132080 
z"/>
<path fill="#616062" opacity="1.000000" stroke="none" 
	d="
M120.662491,307.150482 
	C128.682816,308.445251 131.047119,311.996490 129.197174,320.154541 
	C129.005768,320.998657 128.936493,321.790710 127.862953,321.884155 
	C126.529472,322.000244 126.135696,321.182739 126.117897,320.062073 
	C126.083603,317.902222 126.111946,315.741089 126.057823,313.581909 
	C126.018021,311.993530 125.607040,310.423065 123.718826,310.365662 
	C121.823189,310.308044 120.623100,311.473541 120.529213,313.437408 
	C120.434067,315.427551 120.510109,317.425293 120.457413,319.418304 
	C120.427155,320.562744 120.525993,321.950256 118.794258,321.871216 
	C117.095306,321.793671 117.289497,320.386810 117.282013,319.269592 
	C117.250862,314.616547 117.222816,309.962494 117.295456,305.310364 
	C117.314117,304.115875 116.662041,302.275818 118.587234,302.058472 
	C121.043106,301.781219 120.291084,303.886963 120.473930,305.216766 
	C120.541534,305.708496 120.526314,306.211609 120.662491,307.150482 
z"/>
<path fill="#545455" opacity="1.000000" stroke="none" 
	d="
M671.052795,343.788544 
	C675.172913,345.482178 674.566223,349.607056 676.148376,352.518524 
	C677.484985,354.977936 678.341614,357.703064 679.346313,360.335175 
	C679.663269,361.165527 680.595337,362.254211 679.306152,362.883026 
	C678.406616,363.321838 677.569397,362.814331 676.835754,361.863892 
	C672.569336,356.336609 670.333191,356.401703 665.536194,362.070343 
	C664.939148,362.775879 664.311646,363.106171 663.400879,362.959045 
	C662.544983,362.820831 662.337097,362.376831 662.669495,361.614044 
	C665.273010,355.640320 666.420715,349.009827 671.052795,343.788544 
z"/>
<path fill="#5E5D5F" opacity="1.000000" stroke="none" 
	d="
M89.093399,361.261444 
	C86.205544,361.984253 83.779869,361.929382 81.592926,360.305878 
	C80.929901,359.813660 80.155579,359.325928 80.603119,358.325531 
	C81.151970,357.098694 82.035072,357.236267 83.057014,357.777771 
	C83.918289,358.234070 84.819611,358.731323 85.758835,358.899231 
	C87.600853,359.228577 89.119156,358.500488 89.713814,356.683899 
	C90.329994,354.801575 88.815498,354.025604 87.469780,353.354187 
	C86.584488,352.912476 85.604927,352.656891 84.662254,352.333527 
	C82.127701,351.464050 80.905426,349.659668 81.058022,347.020996 
	C81.182915,344.861359 82.238869,343.175934 84.303108,342.401154 
	C86.766670,341.476501 89.211197,341.669739 91.442986,343.159027 
	C91.990852,343.524658 92.377304,344.150360 92.041725,344.861816 
	C91.627281,345.740448 90.964142,345.939484 90.014854,345.572998 
	C89.099243,345.219482 88.123245,344.910248 87.154228,344.835785 
	C85.957199,344.743774 84.746826,345.076294 84.266640,346.336761 
	C83.653931,347.945068 84.764488,348.809479 85.978119,349.466583 
	C86.700188,349.857574 87.528786,350.046509 88.292717,350.366333 
	C94.119110,352.805664 94.558769,356.894531 89.093399,361.261444 
z"/>
<path fill="#575658" opacity="1.000000" stroke="none" 
	d="
M979.976379,308.587585 
	C977.900208,312.586456 978.622681,314.762817 983.378418,314.280121 
	C984.590576,314.157104 986.414124,313.823975 986.438416,315.773651 
	C986.459656,317.482361 984.743591,317.159210 983.734863,317.010468 
	C979.814331,316.432495 978.280579,317.945648 978.827454,321.888702 
	C978.983276,323.012360 979.480042,324.875458 977.399353,324.951416 
	C974.858582,325.044189 975.780640,322.933380 975.718689,321.666626 
	C975.589111,319.015503 975.678833,316.353638 975.678833,313.696198 
	C975.678772,305.765472 978.384827,303.753510 986.303711,305.742950 
	C987.166931,305.959808 987.957764,306.124390 987.818909,307.225891 
	C987.721802,307.996582 987.110046,308.305786 986.403259,308.328491 
	C984.411926,308.392456 982.419434,308.416718 979.976379,308.587585 
z"/>
<path fill="#545455" opacity="1.000000" stroke="none" 
	d="
M1296.052979,322.009460 
	C1292.074829,325.807526 1287.098389,326.177612 1283.591675,323.286713 
	C1280.108276,320.415100 1279.227539,314.324005 1281.689331,310.133148 
	C1283.974731,306.243103 1289.182129,304.375336 1293.356201,306.111816 
	C1294.470703,306.575500 1296.277832,307.079346 1295.904053,308.663818 
	C1295.519287,310.294556 1294.108887,309.455200 1293.036499,309.062439 
	C1289.746094,307.857269 1286.666504,308.162659 1284.638184,311.225891 
	C1282.738403,314.095032 1282.784668,317.358429 1284.902588,320.094116 
	C1287.311523,323.205811 1290.501465,323.226776 1293.801025,321.373444 
	C1294.591797,320.929230 1295.348755,320.861481 1296.052979,322.009460 
z"/>
<path fill="#616062" opacity="1.000000" stroke="none" 
	d="
M1308.213745,360.647400 
	C1308.215332,356.045502 1308.191284,351.898224 1308.236206,347.751709 
	C1308.247925,346.672913 1307.881592,345.186462 1309.581665,345.032806 
	C1311.686401,344.842499 1311.423218,346.531219 1311.363525,347.778564 
	C1311.248657,350.179016 1311.699341,351.453339 1314.661377,350.959473 
	C1318.120850,350.382782 1319.941895,352.359100 1320.068970,355.800262 
	C1320.154541,358.119446 1320.124146,360.443939 1320.102051,362.765625 
	C1320.092407,363.777283 1319.973633,364.847168 1318.614502,364.873871 
	C1317.256592,364.900604 1317.076538,363.870270 1317.058105,362.831085 
	C1317.025879,361.006927 1317.052856,359.181732 1317.026245,357.357391 
	C1316.999023,355.490906 1316.976318,353.311920 1314.472900,353.355652 
	C1312.009888,353.398590 1311.269165,355.302948 1311.387817,357.581879 
	C1311.448120,358.739868 1311.508667,359.917633 1311.365967,361.061127 
	C1311.199341,362.395294 1312.183105,364.576508 1310.062744,364.762970 
	C1307.283447,365.007416 1308.574463,362.484009 1308.213745,360.647400 
z"/>
<path fill="#5A5A5B" opacity="1.000000" stroke="none" 
	d="
M754.249207,323.533142 
	C751.814148,323.395538 749.710327,323.011047 750.019836,326.258331 
	C750.102539,327.125763 749.569397,327.886566 748.563293,327.918732 
	C747.139954,327.964264 747.053711,326.863495 747.047302,325.863983 
	C747.017273,321.204193 747.029846,316.544159 747.029053,311.884186 
	C747.028809,310.316986 747.341248,309.174957 749.348267,309.963531 
	C749.899414,310.180054 750.659607,310.360992 751.151489,310.152191 
	C754.910828,308.556213 757.688782,309.348907 759.083008,313.362061 
	C760.597290,317.720703 758.973328,321.305084 754.249207,323.533142 
z"/>
<path fill="#232323" opacity="1.000000" stroke="none" 
	d="
M417.194946,351.465118 
	C413.333374,348.905426 412.064911,350.414978 411.703644,354.213196 
	C411.474274,356.625183 413.221802,361.142639 410.344849,361.007416 
	C407.087402,360.854340 409.311523,356.389343 408.991486,353.876801 
	C408.574249,350.601196 408.872345,347.231903 408.903534,343.903351 
	C408.912231,342.976562 408.619873,341.730774 410.134583,341.694336 
	C411.389557,341.664154 411.944580,342.526733 411.745148,343.662506 
	C411.067230,347.523224 412.542389,348.276184 416.248535,347.667297 
	C418.976013,347.219147 420.529175,349.625519 420.387054,352.204041 
	C420.217773,355.274994 422.415009,360.342529 419.100189,360.875732 
	C416.502136,361.293732 418.410156,355.980591 417.666199,353.335114 
	C417.532043,352.858032 417.469635,352.360809 417.194946,351.465118 
z"/>
<path fill="#59585A" opacity="1.000000" stroke="none" 
	d="
M961.030457,362.470306 
	C961.025085,357.542877 961.127380,353.060486 960.984009,348.585968 
	C960.908203,346.220734 961.732117,345.167206 964.109009,345.404846 
	C967.919800,345.785950 972.615173,344.613007 973.960510,349.897034 
	C974.903748,353.602081 973.522949,356.721130 969.377258,357.239166 
	C965.801941,357.685883 963.376343,358.499786 964.178101,362.809235 
	C964.358459,363.778473 964.055115,364.809845 962.663391,364.854645 
	C961.272400,364.899475 961.104065,363.961914 961.030457,362.470306 
z"/>
<path fill="#5A5A5B" opacity="1.000000" stroke="none" 
	d="
M1243.914062,350.123993 
	C1245.988892,345.629059 1249.440552,344.196869 1253.139771,345.914581 
	C1254.045288,346.335052 1255.158813,346.755280 1254.824341,347.974609 
	C1254.460083,349.301788 1253.421753,348.975739 1252.425171,348.568512 
	C1250.480713,347.774109 1248.103882,347.203278 1247.239380,349.553589 
	C1246.104004,352.640076 1249.286743,352.912048 1251.079346,353.595032 
	C1255.100220,355.126984 1256.696167,357.652832 1254.977173,361.715637 
	C1253.592651,364.987793 1248.867798,366.194183 1245.498657,364.245453 
	C1244.556030,363.700195 1243.052490,363.185211 1243.555542,361.765991 
	C1244.130005,360.145111 1245.401733,361.010040 1246.457397,361.441772 
	C1247.064941,361.690308 1247.695801,361.940674 1248.338745,362.032074 
	C1250.099976,362.282379 1251.813599,362.036163 1252.493530,360.157013 
	C1253.279297,357.985565 1251.587036,357.186066 1249.983887,356.625610 
	C1246.938110,355.560883 1243.804199,354.665741 1243.914062,350.123993 
z"/>
<path fill="#5E5D5F" opacity="1.000000" stroke="none" 
	d="
M1315.343750,326.393311 
	C1315.183228,328.070221 1315.501709,329.790009 1313.484619,329.602509 
	C1311.929810,329.457947 1312.143555,327.976196 1312.139282,326.848419 
	C1312.123047,322.552643 1312.128784,318.256775 1312.137451,313.960938 
	C1312.141479,312.008026 1312.465576,310.497345 1314.976685,311.866333 
	C1315.340576,312.064697 1315.901245,311.980743 1316.356689,311.920288 
	C1322.275269,311.134521 1324.436523,312.541931 1324.763306,317.420807 
	C1325.085205,322.227386 1322.622559,324.815521 1317.416992,325.073517 
	C1316.583130,325.114838 1315.763916,324.997253 1315.343750,326.393311 
z"/>
<path fill="#515052" opacity="1.000000" stroke="none" 
	d="
M153.282288,360.471252 
	C151.869247,361.006439 150.730637,361.622070 149.668350,361.510559 
	C147.467224,361.279510 145.729263,361.151917 146.129974,364.225067 
	C146.232925,365.014679 145.946594,365.984314 144.845200,365.892212 
	C143.804062,365.805084 143.682892,364.872406 143.679688,364.039001 
	C143.661316,359.250214 143.655350,354.461273 143.676376,349.672516 
	C143.680893,348.644775 143.830322,347.553497 145.313644,348.028320 
	C148.482086,349.042664 152.961273,345.063171 154.946686,350.473694 
	C156.210464,353.917694 156.180786,357.270782 153.282288,360.471252 
z"/>
<path fill="#575658" opacity="1.000000" stroke="none" 
	d="
M1074.291992,318.351532 
	C1073.624023,320.786804 1075.692871,324.624268 1072.976685,324.662079 
	C1069.333984,324.712799 1071.853027,320.802582 1071.229736,318.733734 
	C1070.669678,316.874756 1072.018311,313.901276 1068.672607,313.815521 
	C1065.350464,313.730438 1065.663208,316.422974 1065.381958,318.791138 
	C1065.136597,320.857117 1066.746704,324.723572 1064.133545,324.640503 
	C1061.026489,324.541779 1063.296631,320.630402 1062.610352,318.516235 
	C1062.513062,318.216858 1062.486328,317.806274 1062.614502,317.536194 
	C1063.523438,315.621368 1060.529175,311.997620 1064.417114,311.636688 
	C1073.275635,310.814209 1073.729980,311.338196 1074.291992,318.351532 
z"/>
<path fill="#575658" opacity="1.000000" stroke="none" 
	d="
M681.750854,358.302673 
	C682.165955,355.043304 680.730347,349.659882 682.661011,349.823395 
	C686.087402,350.113556 683.686951,354.649963 684.302368,357.297119 
	C684.698914,359.002716 684.870605,360.731812 687.091492,360.703522 
	C689.350708,360.674713 690.287781,359.302551 690.211487,357.103424 
	C690.159546,355.607147 690.145081,354.104065 690.227966,352.610352 
	C690.295959,351.385132 689.707458,349.463959 691.592041,349.418701 
	C693.891785,349.363434 693.180115,351.492279 693.255005,352.845490 
	C693.356079,354.671021 693.488892,356.537964 693.217407,358.327850 
	C692.981323,359.884613 694.362305,363.075012 691.850159,362.673218 
	C688.643799,362.160339 684.385864,365.581848 682.158203,360.668030 
	C681.892822,360.082642 681.903076,359.372345 681.750854,358.302673 
z"/>
<path fill="#5E5D5F" opacity="1.000000" stroke="none" 
	d="
M744.612671,317.632446 
	C743.614075,322.358002 740.869629,324.161133 736.567383,323.464813 
	C732.797791,322.854706 731.351807,320.155151 731.302795,316.673737 
	C731.250244,312.942230 732.916443,310.265778 736.788696,309.477356 
	C741.197510,308.579651 743.896484,311.280945 744.612671,317.632446 
z"/>
<path fill="#5E5D5F" opacity="1.000000" stroke="none" 
	d="
M158.626831,313.572632 
	C157.867569,316.582184 160.425095,321.330322 156.920639,321.448029 
	C153.970749,321.547119 156.157349,316.768494 155.530334,314.237427 
	C155.098099,312.492584 155.338272,310.207642 152.770294,310.363831 
	C150.341583,310.511505 149.859711,312.396820 149.663315,314.642761 
	C149.451218,317.067902 151.019913,321.610016 148.341263,321.456512 
	C145.108032,321.271240 147.100983,316.812042 147.051163,314.344635 
	C147.011719,312.392334 144.982437,308.908783 148.645798,308.303589 
	C156.350021,307.030792 157.199112,307.665558 158.626831,313.572632 
z"/>
<path fill="#292929" opacity="1.000000" stroke="none" 
	d="
M464.776672,319.318481 
	C464.773834,317.555573 464.824554,316.224731 464.758881,314.899597 
	C464.663147,312.968445 465.077789,310.447357 462.245636,310.324646 
	C459.426178,310.202515 458.770935,312.292633 458.929504,314.761963 
	C459.014435,316.084778 459.008881,317.421814 458.923187,318.744629 
	C458.844849,319.954224 459.459106,321.731476 457.480621,321.869995 
	C455.233215,322.027374 456.067261,320.096375 455.961823,318.969910 
	C455.823212,317.488525 455.578247,315.873932 456.008240,314.515900 
	C456.658081,312.463715 453.820312,308.699554 458.014801,308.465424 
	C467.011108,307.963257 467.612854,308.597748 467.769196,314.938446 
	C467.810120,316.597717 467.789520,318.259338 467.760437,319.919220 
	C467.742157,320.964844 467.549011,321.953888 466.171417,321.898163 
	C464.741913,321.840302 464.837372,320.732910 464.776672,319.318481 
z"/>
<path fill="#5C5B5D" opacity="1.000000" stroke="none" 
	d="
M139.499222,321.894226 
	C135.286606,322.443695 132.555069,320.935120 131.470261,317.232361 
	C130.454178,313.764191 131.117142,310.484314 134.531799,308.658722 
	C137.368195,307.142273 140.517883,307.283142 142.712280,309.857269 
	C145.239670,312.821930 145.119141,316.309814 143.024429,319.513733 
	C142.358978,320.531555 140.955948,321.067200 139.499222,321.894226 
z"/>
<path fill="#1D1D1D" opacity="1.000000" stroke="none" 
	d="
M449.411316,353.951843 
	C451.136169,353.604370 453.280548,354.163757 452.607208,351.662415 
	C452.208710,350.181976 450.870087,349.869659 449.386230,350.075592 
	C448.165558,350.245026 447.117371,351.756195 445.505524,350.384827 
	C446.736328,347.355591 449.354950,347.365509 451.929535,347.683044 
	C454.282501,347.973206 455.192932,349.742126 455.342712,351.933960 
	C455.433075,353.256744 455.317291,354.599640 455.481384,355.910065 
	C455.908264,359.318665 455.644562,361.670044 451.033386,361.343445 
	C448.564514,361.168610 445.807434,362.362885 444.887970,359.082184 
	C443.984375,355.858246 446.456604,354.767426 449.411316,353.951843 
z"/>
<path fill="#59585A" opacity="1.000000" stroke="none" 
	d="
M717.470215,321.057587 
	C716.998230,319.593536 716.689758,318.125458 716.698364,316.659271 
	C716.717346,313.428619 717.811951,310.790283 721.221558,309.741669 
	C724.272034,308.803467 726.882324,309.571930 728.659851,312.199707 
	C730.614990,315.090332 730.557739,318.213043 728.588745,321.075134 
	C726.729980,323.776825 723.936096,323.969971 720.997009,323.273773 
	C719.648315,322.954315 718.643738,322.094788 717.470215,321.057587 
z"/>
<path fill="#5E5D5F" opacity="1.000000" stroke="none" 
	d="
M1379.651367,363.017700 
	C1376.492188,365.789276 1373.311646,365.831512 1370.415771,363.468018 
	C1367.636475,361.199493 1367.544800,357.968109 1368.566284,354.782867 
	C1369.508423,351.844482 1371.872559,350.795105 1374.789551,350.816803 
	C1376.975220,350.833069 1378.685425,351.769165 1379.535278,353.819305 
	C1380.570435,356.316895 1380.802124,358.486481 1376.943726,358.103119 
	C1376.614990,358.070465 1376.204224,357.973053 1375.960449,358.119781 
	C1374.509399,358.992950 1371.233154,356.327972 1371.468628,359.685333 
	C1371.664429,362.475159 1374.469604,362.763062 1377.003052,361.978699 
	C1378.068481,361.648804 1379.265381,360.947144 1379.651367,363.017700 
z"/>
<path fill="#5E5D5F" opacity="1.000000" stroke="none" 
	d="
M1004.970093,311.444580 
	C1006.583252,311.593689 1007.645325,312.068085 1009.130066,311.691681 
	C1013.849060,310.495483 1016.059326,312.189453 1015.923950,317.148743 
	C1015.853455,319.731720 1017.444336,324.479736 1014.831665,324.540070 
	C1011.232849,324.623169 1013.602844,320.133759 1013.056885,317.706329 
	C1012.652100,315.906281 1012.930298,313.733795 1010.316223,313.816040 
	C1007.764648,313.896301 1007.111816,315.720276 1007.225464,318.012421 
	C1007.307861,319.673737 1007.229980,321.343018 1007.221802,323.008759 
	C1007.216553,324.080292 1007.045288,325.002838 1005.648254,324.994995 
	C1004.251526,324.987122 1004.042725,324.047180 1004.103149,322.990784 
	C1004.320251,319.197388 1003.510803,315.359375 1004.970093,311.444580 
z"/>
<path fill="#5A5A5B" opacity="1.000000" stroke="none" 
	d="
M1032.849609,356.054291 
	C1032.570435,352.745209 1030.931763,352.721497 1028.727295,353.817780 
	C1027.875488,354.241394 1026.701172,354.813599 1026.237183,353.517426 
	C1025.801392,352.299896 1027.081787,351.893097 1027.927368,351.476135 
	C1032.049438,349.443634 1035.654785,351.402496 1036.127075,355.924347 
	C1036.229858,356.907166 1036.200806,357.904999 1036.210449,358.896149 
	C1036.257568,363.716370 1032.836426,366.219666 1027.987915,364.964722 
	C1026.337891,364.537659 1025.435547,363.458984 1025.192627,361.871765 
	C1024.939331,360.216766 1025.736450,358.834930 1027.157959,358.195282 
	C1028.925781,357.399872 1030.869629,356.996185 1032.849609,356.054291 
z"/>
<path fill="#5C5B5D" opacity="1.000000" stroke="none" 
	d="
M97.430061,360.702545 
	C94.196793,357.761353 93.844330,354.426056 95.261185,350.962433 
	C96.805695,347.186707 101.955292,346.174561 104.846985,348.902985 
	C106.263794,350.239807 107.052429,351.987671 106.500839,353.830872 
	C105.912979,355.795288 103.911552,354.573334 102.637657,355.044434 
	C101.052582,355.630585 97.890839,353.454376 98.019478,356.561829 
	C98.145126,359.596832 101.084343,359.440216 103.492241,358.744843 
	C104.393456,358.484589 105.470810,357.568329 105.972740,358.947083 
	C106.528503,360.473663 105.060463,360.828796 104.028831,361.203583 
	C101.914604,361.971588 99.800743,361.867279 97.430061,360.702545 
z"/>
<path fill="#232323" opacity="1.000000" stroke="none" 
	d="
M392.440094,318.573181 
	C392.084686,317.266327 391.793427,316.294891 391.761841,315.315094 
	C391.650940,311.872925 392.618317,308.950043 396.397583,308.115265 
	C399.543854,307.420288 402.414642,308.006012 403.940460,311.301086 
	C405.487610,314.642090 405.190460,317.921326 402.463196,320.424835 
	C399.792542,322.876343 396.715118,322.613678 393.861908,320.436401 
	C393.354797,320.049377 393.031494,319.421448 392.440094,318.573181 
z"/>
<path fill="#5E5D5F" opacity="1.000000" stroke="none" 
	d="
M1265.452881,362.133545 
	C1266.753540,361.818298 1267.886841,361.037872 1268.559570,362.076813 
	C1269.302002,363.223541 1268.185303,363.867371 1267.287964,364.263702 
	C1264.321167,365.574036 1261.330566,365.660706 1259.055908,363.106628 
	C1256.622192,360.373810 1256.350220,357.069427 1258.071777,353.824921 
	C1259.647339,350.855591 1262.439575,350.392853 1265.386719,351.101440 
	C1267.965698,351.721527 1269.291626,353.701843 1269.175049,356.281769 
	C1269.033569,359.415070 1266.432007,357.595825 1264.971558,358.099396 
	C1263.419678,358.634460 1260.619263,356.886841 1260.400879,359.277588 
	C1260.166626,361.841949 1262.616577,362.618530 1265.452881,362.133545 
z"/>
<path fill="#515052" opacity="1.000000" stroke="none" 
	d="
M788.283447,362.733185 
	C787.866943,359.350189 787.816956,356.188446 787.739746,353.027374 
	C787.683899,350.739746 787.310242,349.072998 791.070618,349.937317 
	C793.237000,350.435272 796.312744,348.031616 798.161316,350.942261 
	C800.249695,354.230408 798.868835,358.097473 799.101807,361.703186 
	C799.148193,362.421265 798.711365,362.951202 797.911682,362.943573 
	C797.125000,362.936066 796.700439,362.443451 796.680786,361.699219 
	C796.623718,359.534088 796.685181,357.363800 796.566223,355.202911 
	C796.471619,353.483734 796.130249,351.713562 793.853882,351.767731 
	C791.691895,351.819153 790.504456,353.011963 790.517395,355.264893 
	C790.527832,357.097931 790.501831,358.931152 790.494141,360.764313 
	C790.488953,362.015686 790.364624,363.162933 788.283447,362.733185 
z"/>
<path fill="#292929" opacity="1.000000" stroke="none" 
	d="
M430.410522,320.702179 
	C427.600586,317.704895 427.111359,314.622864 428.628601,311.252747 
	C429.709290,308.852417 431.708160,307.887268 434.248322,307.872620 
	C436.189972,307.861420 437.831482,308.495178 438.981628,310.136169 
	C439.885193,311.425385 440.438263,312.945068 439.775482,314.356598 
	C439.207031,315.567230 437.637482,314.774414 436.618866,315.139191 
	C434.797272,315.791504 431.170197,313.249237 431.328735,316.857513 
	C431.468658,320.043213 434.660950,319.853790 437.257874,318.869659 
	C438.046661,318.570740 439.030609,318.272736 439.405365,319.262482 
	C439.878998,320.513428 438.722534,320.924347 437.854431,321.328705 
	C435.421570,322.461853 433.032013,322.375946 430.410522,320.702179 
z"/>
<path fill="#5A5A5B" opacity="1.000000" stroke="none" 
	d="
M1421.221191,361.717834 
	C1419.687012,354.486023 1421.714722,350.792358 1426.822754,350.820557 
	C1428.769165,350.831299 1430.408447,351.451447 1431.477539,353.160645 
	C1432.297852,354.471893 1432.813354,356.032837 1432.171021,357.400757 
	C1431.615601,358.583252 1430.087891,358.035126 1428.975464,358.072052 
	C1427.161621,358.132294 1425.344360,358.088348 1423.296997,358.088348 
	C1423.977295,362.387939 1426.390259,362.976318 1429.779419,361.846893 
	C1430.576660,361.581207 1431.474731,361.317749 1431.847534,362.362549 
	C1432.203979,363.361053 1431.379028,363.871582 1430.634277,364.203705 
	C1427.033691,365.809418 1423.876831,365.372986 1421.221191,361.717834 
z"/>
<path fill="#5C5B5D" opacity="1.000000" stroke="none" 
	d="
M1298.601562,322.790344 
	C1298.185791,319.463165 1300.066528,318.407196 1302.497559,317.660950 
	C1303.882935,317.235657 1306.632080,317.957367 1306.124512,315.477600 
	C1305.512085,312.485352 1303.100952,313.907166 1301.267700,314.482971 
	C1300.567871,314.702820 1299.982300,314.612000 1299.551270,313.966187 
	C1302.268921,310.757690 1305.237183,310.109619 1307.685303,312.193848 
	C1309.312622,313.579315 1310.379517,324.354767 1309.060791,324.342438 
	C1305.643555,324.310516 1301.687378,327.266876 1298.601562,322.790344 
z"/>
<path fill="#5E5D5F" opacity="1.000000" stroke="none" 
	d="
M1055.417480,311.337250 
	C1059.790894,312.966492 1060.563721,316.122589 1060.018555,319.892731 
	C1059.590332,322.855621 1057.857178,324.604156 1054.878174,325.074127 
	C1050.471191,325.769348 1047.338379,323.395844 1046.966553,319.083466 
	C1046.509888,313.786987 1049.021973,311.341583 1055.417480,311.337250 
z"/>
<path fill="#5C5B5D" opacity="1.000000" stroke="none" 
	d="
M1378.232910,322.677643 
	C1376.778931,319.819397 1376.527222,317.235260 1377.670654,314.631989 
	C1378.724365,312.232635 1380.803345,311.223907 1383.255493,311.089447 
	C1385.380005,310.973053 1387.278198,311.831818 1388.247681,313.774780 
	C1389.498779,316.282257 1390.127197,318.540771 1385.805786,318.667053 
	C1383.967896,318.720795 1380.225220,316.935242 1380.543579,320.430145 
	C1380.813110,323.390564 1384.191284,323.031616 1386.744751,322.119843 
	C1387.161255,321.971191 1387.691040,322.140198 1388.213013,322.164429 
	C1386.465942,325.997498 1383.113281,326.254181 1378.232910,322.677643 
z"/>
<path fill="#232323" opacity="1.000000" stroke="none" 
	d="
M412.985718,322.022888 
	C409.860657,321.857422 407.886261,320.581329 406.870728,317.999390 
	C405.339417,314.106018 406.982269,309.531647 410.322601,308.286011 
	C413.875183,306.961212 417.753418,308.587463 418.969940,311.912018 
	C420.696075,316.629059 418.622040,320.377563 412.985718,322.022888 
z"/>
<path fill="#59585A" opacity="1.000000" stroke="none" 
	d="
M1281.280518,352.734802 
	C1281.761108,354.689484 1282.164429,356.309143 1282.219360,357.940552 
	C1282.443970,364.610748 1282.403320,364.591583 1275.916870,365.040314 
	C1273.665771,365.196075 1271.862671,364.541046 1271.312988,362.221130 
	C1270.756348,359.872070 1272.211182,358.488068 1274.216431,357.650208 
	C1274.967163,357.336517 1275.796265,357.141052 1276.607056,357.054443 
	C1278.031250,356.902344 1279.440552,356.719818 1278.876343,354.778198 
	C1278.417236,353.198334 1277.115601,352.890533 1275.679199,353.356689 
	C1274.626221,353.698486 1273.705078,354.704620 1271.491089,353.134674 
	C1274.889038,350.652985 1277.669922,349.742432 1281.280518,352.734802 
z"/>
<path fill="#5C5B5D" opacity="1.000000" stroke="none" 
	d="
M778.973267,363.144501 
	C775.015503,363.223419 772.970520,361.362366 772.275879,358.023621 
	C771.663391,355.079559 772.215942,352.316864 774.720947,350.422668 
	C776.847290,348.814880 779.264893,348.592377 781.746460,349.844299 
	C784.979065,351.475037 785.351257,354.348175 785.082825,357.461761 
	C784.785156,360.913849 782.950684,362.914856 778.973267,363.144501 
z"/>
<path fill="#575658" opacity="1.000000" stroke="none" 
	d="
M705.820007,357.544861 
	C705.560547,353.805878 706.169617,350.906189 709.817505,349.550781 
	C712.431335,348.579559 714.807434,349.077545 716.689575,350.946289 
	C718.878662,353.119751 719.037842,355.896851 718.257141,358.791290 
	C717.447388,361.793732 715.420349,363.086975 712.432068,363.139648 
	C708.801270,363.203644 706.393677,361.738159 705.820007,357.544861 
z"/>
<path fill="#5E5D5F" opacity="1.000000" stroke="none" 
	d="
M1097.971802,359.945923 
	C1097.944824,358.328308 1098.000244,357.158386 1097.870361,356.009460 
	C1097.714478,354.632019 1097.221313,353.231049 1095.569580,353.286865 
	C1093.797363,353.346680 1092.311646,354.231842 1092.187622,356.234619 
	C1092.044189,358.549561 1092.144775,360.878632 1092.082520,363.200043 
	C1092.060059,364.029663 1091.882324,364.885620 1090.753906,364.869720 
	C1089.763184,364.855804 1089.211792,364.268005 1089.207031,363.322876 
	C1089.188721,359.676270 1089.142456,356.026306 1089.283569,352.384430 
	C1089.332153,351.129303 1090.333130,351.053314 1091.489868,351.298981 
	C1094.410034,351.919220 1098.202026,348.891815 1100.198608,353.294312 
	C1101.702026,356.609589 1100.844971,360.157227 1100.889526,363.608551 
	C1100.898804,364.323914 1100.425537,364.811096 1099.656250,364.860352 
	C1098.918457,364.907623 1098.271362,364.578735 1098.164185,363.871155 
	C1097.991455,362.731567 1098.025513,361.560638 1097.971802,359.945923 
z"/>
<path fill="#5C5B5D" opacity="1.000000" stroke="none" 
	d="
M1087.008545,313.282318 
	C1087.986572,315.014465 1087.928101,316.519775 1087.962524,318.020752 
	C1088.126831,325.182922 1087.522095,325.750977 1080.504639,325.185486 
	C1078.647949,325.035858 1077.274170,324.384064 1076.930054,322.401489 
	C1076.601562,320.508453 1077.582153,319.379608 1079.060547,318.282318 
	C1080.768066,317.014801 1084.826416,318.531647 1084.333130,315.391937 
	C1083.738892,311.609924 1080.074707,315.432770 1077.184570,313.577789 
	C1080.657959,311.010956 1083.432617,309.716675 1087.008545,313.282318 
z"/>
<path fill="#545455" opacity="1.000000" stroke="none" 
	d="
M993.782104,364.966125 
	C987.917480,364.161713 985.721802,361.296295 986.711243,356.285461 
	C987.536438,352.106812 990.578918,350.113068 994.714478,351.036285 
	C998.008606,351.771729 999.263245,354.092865 999.416260,357.193756 
	C999.606934,361.058685 998.458313,364.070557 993.782104,364.966125 
z"/>
<path fill="#616062" opacity="1.000000" stroke="none" 
	d="
M1366.245972,315.609741 
	C1366.092896,318.362518 1366.085938,320.692261 1366.044800,323.021423 
	C1366.026978,324.032562 1365.998657,325.124542 1364.521484,324.985809 
	C1363.523682,324.892059 1363.145508,324.175842 1363.140869,323.262787 
	C1363.124146,319.934875 1363.090698,316.606201 1363.148071,313.279266 
	C1363.171631,311.916870 1363.685425,311.257202 1365.358521,311.607117 
	C1368.510376,312.266296 1373.069702,308.927826 1374.405151,314.467407 
	C1375.091064,317.312439 1374.757935,320.407227 1374.844238,323.390350 
	C1374.871582,324.336884 1374.383423,324.980316 1373.376221,324.989777 
	C1372.322021,324.999664 1371.992676,324.274933 1371.979736,323.361847 
	C1371.953857,321.531647 1372.007446,319.698853 1371.931641,317.871124 
	C1371.744141,313.348206 1370.864746,312.935394 1366.245972,315.609741 
z"/>
<path fill="#5C5B5D" opacity="1.000000" stroke="none" 
	d="
M1001.036133,322.817932 
	C998.375671,325.929016 995.004150,325.232117 991.999146,324.714661 
	C989.581055,324.298309 989.186707,321.745422 989.169373,319.479401 
	C989.156677,317.821777 989.123596,316.162811 989.173950,314.506683 
	C989.212158,313.250824 988.778870,311.451965 990.624634,311.338470 
	C992.697571,311.210938 992.034851,313.124512 992.145142,314.300079 
	C992.253052,315.450500 992.112793,316.622406 992.185486,317.778351 
	C992.315308,319.842407 991.773621,322.608887 994.964905,322.591614 
	C998.319702,322.573395 998.050781,319.816711 998.037231,317.466003 
	C998.029602,316.139954 998.032227,314.813538 998.055054,313.487701 
	C998.072937,312.450623 998.243591,311.360748 999.520142,311.309052 
	C1000.852417,311.255127 1001.016968,312.361633 1001.025024,313.391022 
	C1001.048340,316.374756 1001.038818,319.358734 1001.036133,322.817932 
z"/>
<path fill="#5A5A5B" opacity="1.000000" stroke="none" 
	d="
M753.161133,359.949677 
	C751.919800,365.224060 747.957153,362.273926 745.335266,363.006042 
	C743.610840,363.487549 742.233276,361.826904 742.144531,359.967987 
	C742.031189,357.592529 743.811096,356.689911 745.730957,355.796539 
	C747.202393,355.111816 750.737549,356.564270 749.760925,353.174927 
	C748.971497,350.435181 746.506592,352.135864 744.679688,352.600952 
	C744.278320,352.703094 743.768738,352.379761 742.903931,352.140106 
	C744.484680,349.276093 746.867310,348.662079 749.507202,349.264282 
	C752.105042,349.856903 753.177307,351.877136 753.146912,354.501129 
	C753.127686,356.158752 753.155579,357.816925 753.161133,359.949677 
z"/>
<path fill="#59585A" opacity="1.000000" stroke="none" 
	d="
M93.118874,309.987610 
	C93.045120,309.357117 93.023209,309.112915 93.005943,308.683655 
	C95.282494,307.130493 95.781982,308.996307 96.535606,310.438446 
	C97.505745,312.294891 97.638931,314.581055 99.348778,316.075439 
	C101.917938,313.912903 100.777641,309.554871 104.639168,308.159363 
	C105.342194,308.623810 105.511955,309.052460 105.268417,309.872925 
	C103.092522,314.904877 101.102226,319.623383 99.131042,324.349915 
	C98.658928,325.481934 97.986382,326.762848 96.673805,326.214569 
	C95.021347,325.524200 96.319885,324.249756 96.670937,323.299927 
	C98.579018,318.137421 94.359688,314.671021 93.118874,309.987610 
z"/>
<path fill="#616062" opacity="1.000000" stroke="none" 
	d="
M1415.095093,352.454651 
	C1416.864624,350.116547 1417.704590,351.065216 1417.908203,352.990997 
	C1418.098511,354.792175 1418.330444,356.726135 1417.876587,358.423096 
	C1417.323486,360.490753 1420.064697,364.260742 1415.875122,364.480042 
	C1406.818604,364.954071 1406.159790,364.391327 1406.284424,358.095947 
	C1406.330811,355.754272 1404.567139,351.620026 1407.830444,351.424194 
	C1410.213745,351.281189 1408.697144,355.507202 1409.031982,357.751465 
	C1409.322021,359.694366 1408.834595,362.088898 1411.683716,362.214722 
	C1414.575317,362.342438 1415.156372,360.320831 1415.020020,357.855652 
	C1414.928711,356.206238 1415.018921,354.546753 1415.095093,352.454651 
z"/>
<path fill="#545455" opacity="1.000000" stroke="none" 
	d="
M1347.832520,315.796570 
	C1349.623657,311.254700 1352.773804,310.151031 1356.723022,311.779724 
	C1361.074341,313.574310 1360.865723,317.483704 1359.959595,321.077484 
	C1359.017334,324.813782 1355.820557,325.670074 1352.471558,324.969543 
	C1347.630859,323.956970 1347.147827,320.279755 1347.832520,315.796570 
z"/>
<path fill="#616062" opacity="1.000000" stroke="none" 
	d="
M105.486099,310.099182 
	C105.046570,309.757416 105.017334,309.331421 104.985596,308.585144 
	C109.032791,309.452148 108.247711,305.167664 110.086525,303.260193 
	C111.639633,305.478516 111.107910,309.111694 115.351624,308.894775 
	C110.615623,310.222839 111.218636,313.585999 111.315819,316.730011 
	C111.342010,317.577271 111.424919,318.429169 112.236328,318.899414 
	C113.177620,319.444824 115.302399,318.544373 114.787712,320.791565 
	C114.546059,321.846619 113.327744,321.988861 112.298286,322.047211 
	C110.663361,322.139923 109.379753,321.678192 108.660164,320.050476 
	C107.810638,318.128693 108.262733,316.112488 108.099380,314.141266 
	C107.960777,312.468933 108.812248,310.221222 105.486099,310.099182 
z"/>
<path fill="#616062" opacity="1.000000" stroke="none" 
	d="
M1336.539429,312.944092 
	C1332.687988,314.689789 1332.622803,315.115997 1335.167236,318.767029 
	C1336.654175,320.900452 1336.139404,323.116547 1333.997803,324.351227 
	C1331.595093,325.736420 1328.918701,325.766785 1326.589844,323.857361 
	C1326.395508,323.698029 1326.448975,322.902557 1326.669312,322.634125 
	C1327.336914,321.820679 1328.145630,322.346649 1328.924194,322.573334 
	C1330.376221,322.996124 1332.133667,323.552765 1332.733521,321.641632 
	C1333.305420,319.819611 1331.380371,319.655060 1330.240356,319.251617 
	C1327.693115,318.350067 1325.248291,317.122742 1326.520630,313.994171 
	C1327.791138,310.869690 1330.633789,310.407990 1333.640869,311.576141 
	C1334.540649,311.925659 1335.295654,312.647827 1336.539429,312.944092 
z"/>
<path fill="#292929" opacity="1.000000" stroke="none" 
	d="
M398.515594,348.097107 
	C401.143982,347.229736 398.979340,343.849335 401.907990,343.329407 
	C402.969147,345.380005 401.848877,349.458832 407.260559,348.126068 
	C401.364014,351.697906 401.059998,355.922913 405.553528,358.975189 
	C406.740326,359.781372 406.535583,360.532562 405.456970,361.205841 
	C403.007416,362.734802 400.120087,361.151733 399.870758,358.028412 
	C399.605194,354.701630 400.408112,351.209320 398.515594,348.097107 
z"/>
<path fill="#5C5B5D" opacity="1.000000" stroke="none" 
	d="
M1388.479980,350.937012 
	C1389.849731,351.412292 1391.451416,351.533569 1390.920410,353.113892 
	C1390.441162,354.539703 1389.289917,353.429443 1388.422119,353.267059 
	C1387.268799,353.051208 1385.851440,352.747375 1385.362671,354.061951 
	C1384.624512,356.047516 1386.618042,356.025421 1387.686157,356.456207 
	C1389.752563,357.289429 1391.841064,358.074677 1391.775879,360.770355 
	C1391.732422,362.568939 1390.683838,363.960236 1389.005371,364.560883 
	C1386.430176,365.482422 1383.995605,365.356903 1381.948730,363.210114 
	C1382.426392,362.586090 1382.557739,362.234436 1382.796631,362.130951 
	C1384.539062,361.376282 1387.135864,364.213959 1388.071655,361.559875 
	C1389.069214,358.730255 1385.647095,359.198212 1384.246216,358.195557 
	C1382.723511,357.105774 1381.770874,355.909393 1382.236572,354.078033 
	C1383.023560,350.983002 1385.463135,350.669220 1388.479980,350.937012 
z"/>
<path fill="#232323" opacity="1.000000" stroke="none" 
	d="
M458.373718,348.036835 
	C460.635742,346.961090 458.969452,344.169342 461.501343,343.170990 
	C462.713959,344.836334 461.565338,348.903107 465.631470,348.233917 
	C465.864410,348.195618 466.088470,349.477051 465.086548,350.083282 
	C461.078827,352.508423 460.991730,356.804413 464.873077,358.965912 
	C465.488403,359.308594 466.118805,359.481201 465.858673,360.266052 
	C465.728333,360.659332 465.287476,361.105621 464.892975,361.230438 
	C462.067474,362.124023 459.811005,361.670776 459.501526,358.228516 
	C459.197937,354.851562 459.749359,351.366974 458.373718,348.036835 
z"/>
<path fill="#2E2E2E" opacity="1.000000" stroke="none" 
	d="
M480.809387,359.207520 
	C482.527771,359.597931 484.286926,356.867920 484.908722,359.119049 
	C485.431213,361.010559 482.966125,361.323029 481.421539,361.552094 
	C478.723175,361.952301 476.470123,361.042877 475.197266,358.536591 
	C473.652863,355.495575 473.720062,352.404327 475.888916,349.687897 
	C477.739807,347.369659 480.307892,347.000305 483.066772,347.845398 
	C484.009674,348.134186 485.183777,348.587463 485.001312,349.684601 
	C484.783691,350.993500 483.733276,350.692535 482.682312,350.332916 
	C480.292725,349.515259 478.344147,350.119965 477.653625,352.747559 
	C476.927429,355.510864 477.141754,358.042236 480.809387,359.207520 
z"/>
<path fill="#5E5D5F" opacity="1.000000" stroke="none" 
	d="
M1396.583130,356.375916 
	C1395.737427,363.167725 1399.940186,362.523041 1404.294312,362.123077 
	C1401.949585,365.391479 1399.133911,365.941376 1396.002808,363.913239 
	C1392.746216,361.803833 1392.084106,356.340912 1394.633057,353.218719 
	C1396.961304,350.366638 1399.943237,350.138702 1403.137329,351.680664 
	C1403.771973,351.986969 1404.179443,352.614655 1403.857300,353.309631 
	C1403.539429,353.995850 1402.832520,354.080353 1402.179810,353.773956 
	C1399.561279,352.544403 1397.692261,353.131073 1396.583130,356.375916 
z"/>
<path fill="#515052" opacity="1.000000" stroke="none" 
	d="
M717.102173,320.997559 
	C715.468140,323.031433 707.272400,324.513214 705.555847,323.063812 
	C705.436768,322.963287 705.222534,322.856140 705.222168,322.751495 
	C705.203247,316.809021 705.168518,310.866028 705.244507,304.924500 
	C705.253601,304.213226 706.120178,304.081909 706.820740,304.236481 
	C707.864197,304.466797 707.988098,305.329163 707.999695,306.145599 
	C708.044434,309.292389 708.315002,312.471985 707.967285,315.579559 
	C707.490356,319.841949 708.741089,321.833740 713.285339,321.000275 
	C714.217346,320.829346 715.243164,321.170166 716.694336,321.167908 
	C717.162903,321.060760 717.126953,321.013733 717.102173,320.997559 
z"/>
<path fill="#59585A" opacity="1.000000" stroke="none" 
	d="
M1029.450439,313.166107 
	C1032.494019,312.760651 1031.321045,307.595306 1034.213135,307.519470 
	C1035.225342,307.492950 1035.155762,312.551453 1039.409180,312.704102 
	C1034.175659,312.986481 1035.169678,316.328491 1034.993042,319.207184 
	C1034.821533,322.002991 1036.056641,323.169220 1039.262817,322.575348 
	C1037.914062,325.626343 1036.028687,325.311249 1034.352173,324.961731 
	C1032.305176,324.535004 1032.285400,322.739960 1032.030518,321.045471 
	C1031.618896,318.309296 1033.551880,314.915741 1029.450439,313.166107 
z"/>
<path fill="#5E5D5F" opacity="1.000000" stroke="none" 
	d="
M1298.302490,359.601562 
	C1299.700439,362.736847 1301.778320,362.773621 1304.212524,361.708160 
	C1304.857666,361.425812 1305.517822,361.508636 1305.882812,362.221313 
	C1306.291016,363.018585 1305.670898,363.544220 1305.168823,363.852356 
	C1302.338623,365.589478 1299.502197,365.728058 1297.028687,363.261993 
	C1294.474365,360.715637 1294.385376,355.309357 1296.880005,352.753235 
	C1299.259033,350.315704 1302.109985,350.209229 1305.057617,351.733368 
	C1305.685059,352.057831 1306.095703,352.704956 1305.751831,353.365448 
	C1305.432617,353.978424 1304.749268,354.076447 1304.046021,353.829163 
	C1298.739380,351.963135 1298.048218,355.128448 1298.302490,359.601562 
z"/>
<path fill="#616062" opacity="1.000000" stroke="none" 
	d="
M1028.780273,312.927612 
	C1028.984497,313.303070 1028.973511,313.155701 1028.978882,313.118927 
	C1028.604614,314.001526 1027.890259,314.234772 1026.981201,314.047913 
	C1024.979126,313.636353 1022.972839,313.211029 1021.770203,315.552246 
	C1020.774109,317.491364 1020.831482,319.438812 1022.005432,321.243774 
	C1023.424988,323.426178 1025.398193,322.738983 1027.354004,322.122620 
	C1027.745483,321.999237 1028.254150,322.248230 1029.101074,322.392303 
	C1026.841919,326.096924 1023.829407,325.684448 1020.955505,324.272461 
	C1017.934021,322.787933 1017.004333,317.830750 1018.774292,314.503845 
	C1020.615234,311.043640 1024.095947,310.350586 1028.780273,312.927612 
z"/>
<path fill="#5C5B5D" opacity="1.000000" stroke="none" 
	d="
M697.268921,354.421814 
	C695.436890,350.501923 695.440552,350.484833 699.161133,345.207642 
	C700.566589,349.169708 700.566589,349.169708 704.589355,350.900513 
	C699.942505,351.439545 700.080444,354.246735 699.964600,357.456177 
	C699.849426,360.644806 702.369263,360.349945 704.112854,361.353455 
	C702.879150,363.661255 701.027100,363.341125 699.331299,362.917572 
	C697.548462,362.472290 697.400635,360.821533 697.319153,359.315369 
	C697.238647,357.827667 697.284241,356.333160 697.268921,354.421814 
z"/>
<path fill="#5A5A5B" opacity="1.000000" stroke="none" 
	d="
M756.975464,359.645569 
	C756.320740,356.633026 757.949951,353.896027 755.769592,351.183105 
	C755.119324,350.374084 757.533875,347.101929 758.924255,344.151978 
	C760.269653,347.277191 759.601746,351.053741 764.685547,350.433044 
	C759.388245,351.154144 760.028687,354.326141 759.921997,357.260712 
	C759.822937,359.984009 760.919128,361.287537 764.523926,360.479797 
	C760.473450,364.205231 759.315674,363.986084 756.975464,359.645569 
z"/>
<path fill="#5C5B5D" opacity="1.000000" stroke="none" 
	d="
M1337.292725,313.037445 
	C1336.961792,312.688904 1336.975708,312.837524 1336.977783,312.875153 
	C1339.157837,311.593384 1339.895508,309.290588 1340.582520,305.700104 
	C1342.373291,309.005798 1341.898071,312.662994 1346.214233,312.159363 
	C1343.769775,313.808014 1341.725464,314.793457 1341.905396,318.171570 
	C1342.074585,321.350067 1343.323486,322.739807 1346.393799,323.347107 
	C1341.583130,326.354004 1339.761719,325.455200 1339.279907,320.625732 
	C1339.035522,318.175629 1340.621582,315.225128 1337.292725,313.037445 
z"/>
<path fill="#616062" opacity="1.000000" stroke="none" 
	d="
M109.873398,351.629700 
	C105.544601,347.389191 112.951057,346.387024 111.127190,343.078583 
	C113.694313,344.816254 111.617485,349.729340 117.495163,347.945312 
	C111.688667,351.855377 111.465538,355.760834 115.843697,359.075867 
	C117.087051,360.017303 116.590988,360.868469 115.556847,361.245453 
	C112.844589,362.234131 110.502502,361.902008 110.055054,358.486786 
	C109.778152,356.373322 109.949692,354.201141 109.873398,351.629700 
z"/>
<path fill="#191919" opacity="1.000000" stroke="none" 
	d="
M381.775299,356.593231 
	C381.775330,355.346344 381.775177,354.514099 381.775360,353.681824 
	C381.776672,348.199005 382.812866,347.180786 388.115265,347.452057 
	C388.989349,347.496765 389.812897,347.700104 389.945587,348.719666 
	C390.075287,349.716370 389.524475,350.210541 388.521606,350.269043 
	C383.796478,350.544525 384.412231,354.038788 384.204163,357.200439 
	C384.110931,358.616974 385.372864,361.288330 382.921539,361.191040 
	C380.750458,361.104858 382.171021,358.461975 381.775299,356.593231 
z"/>
<path fill="#666567" opacity="1.000000" stroke="none" 
	d="
M1285.095459,360.694794 
	C1285.095337,358.919128 1285.092041,357.594452 1285.096069,356.269806 
	C1285.109253,351.822876 1287.821655,349.723145 1292.237549,350.819153 
	C1292.782227,350.954285 1293.522949,351.467041 1293.618042,351.921021 
	C1293.715454,352.385834 1293.157837,353.451691 1292.840088,353.470642 
	C1287.125610,353.811371 1288.446167,358.071289 1288.215942,361.520477 
	C1288.127808,362.842896 1288.841553,365.026886 1286.461914,364.794678 
	C1284.255859,364.579376 1285.416626,362.438843 1285.095459,360.694794 
z"/>
<path fill="#545455" opacity="1.000000" stroke="none" 
	d="
M984.755615,351.536285 
	C984.994751,352.841614 984.585327,353.558624 983.601440,353.581879 
	C979.859131,353.670258 979.463745,356.181488 979.496887,359.064941 
	C979.512146,360.391083 979.494507,361.718353 979.455627,363.044067 
	C979.430298,363.908539 979.219116,364.754974 978.174316,364.829498 
	C976.742676,364.931671 976.665344,363.840942 976.654053,362.829987 
	C976.624390,360.176605 976.610535,357.522461 976.641907,354.869202 
	C976.666260,352.811066 976.027161,350.330231 979.864258,351.549988 
	C981.148682,351.958313 982.883484,350.284119 984.755615,351.536285 
z"/>
<path fill="#545455" opacity="1.000000" stroke="none" 
	d="
M1018.083252,363.952423 
	C1015.197632,363.897614 1015.009277,363.303894 1015.529175,354.457153 
	C1015.604736,353.171387 1014.525757,350.519165 1017.708679,351.495026 
	C1018.642578,351.781311 1019.249451,351.445068 1020.019165,351.246185 
	C1021.377258,350.895294 1023.262329,349.931671 1023.721008,352.012878 
	C1024.157593,353.993439 1022.039795,353.468842 1020.904541,353.818665 
	C1018.775085,354.474854 1018.322632,356.173523 1018.272156,358.096161 
	C1018.224243,359.917328 1018.221069,361.739655 1018.083252,363.952423 
z"/>
<path fill="#232323" opacity="1.000000" stroke="none" 
	d="
M448.709412,314.499176 
	C450.310364,310.137421 450.039795,309.976532 443.224609,310.936432 
	C445.046844,307.541260 449.732544,306.612610 451.682159,309.497955 
	C454.086487,313.056274 453.156158,317.243225 452.705109,321.121307 
	C452.506805,322.826263 450.856903,321.208344 449.423737,321.043396 
	C448.843048,320.827667 448.704803,320.660004 448.481140,320.178284 
	C448.387115,318.591583 448.625763,317.320831 448.455139,315.727264 
	C448.569611,315.211456 448.654266,315.015045 448.709412,314.499176 
z"/>
<path fill="#232323" opacity="1.000000" stroke="none" 
	d="
M425.049683,304.322754 
	C425.051208,309.743958 425.062897,314.694061 425.035797,319.644012 
	C425.030640,320.589203 425.146393,321.751831 423.759430,321.876007 
	C422.010162,322.032654 422.068726,320.717621 422.065491,319.559326 
	C422.051300,314.444336 422.052063,309.329193 422.066498,304.214203 
	C422.069244,303.240692 422.013824,302.169403 423.398285,302.023346 
	C424.769836,301.878662 425.034515,302.757263 425.049683,304.322754 
z"/>
<path fill="#59585A" opacity="1.000000" stroke="none" 
	d="
M1093.852051,321.674561 
	C1093.742432,323.387695 1094.150391,325.055573 1092.072021,324.936005 
	C1090.608276,324.851776 1090.960938,323.543732 1090.954834,322.650726 
	C1090.919922,317.512543 1090.924316,312.373932 1090.956787,307.235687 
	C1090.962769,306.296387 1090.856079,305.077606 1092.329590,305.140900 
	C1093.631836,305.196838 1093.825073,306.252197 1093.830078,307.286194 
	C1093.852295,311.927246 1093.848267,316.568420 1093.852051,321.674561 
z"/>
<path fill="#2E2E2E" opacity="1.000000" stroke="none" 
	d="
M471.853271,353.198761 
	C471.004272,356.163574 473.708221,360.847565 470.125793,360.956024 
	C467.361237,361.039673 469.564575,356.232666 468.846497,353.718170 
	C468.759613,353.413971 468.744415,353.030975 468.849579,352.739990 
	C469.444336,351.094452 467.431183,347.917694 470.362366,347.934814 
	C473.226898,347.951477 471.243347,351.116150 471.853271,353.198761 
z"/>
<path fill="#666567" opacity="1.000000" stroke="none" 
	d="
M766.273071,360.530823 
	C766.278320,357.099731 766.251953,354.109619 766.319641,351.121643 
	C766.343933,350.048859 766.826477,349.134460 768.117554,349.275055 
	C769.107361,349.382904 769.440796,350.187531 769.447876,351.072174 
	C769.474609,354.393219 769.475281,357.714569 769.462708,361.035736 
	C769.458679,362.102905 769.209839,363.039551 767.848328,363.010437 
	C766.497375,362.981628 766.325256,362.019501 766.273071,360.530823 
z"/>
<path fill="#5E5D5F" opacity="1.000000" stroke="none" 
	d="
M1044.202881,316.229065 
	C1044.201050,318.136536 1044.396362,319.653442 1044.140137,321.089752 
	C1043.898438,322.444000 1045.370239,324.934021 1042.640503,324.897705 
	C1040.436157,324.868378 1041.359619,322.629700 1041.278687,321.328125 
	C1041.135986,319.032104 1041.196411,316.719604 1041.257690,314.416321 
	C1041.290283,313.188721 1040.832642,311.385742 1042.731323,311.329315 
	C1044.805298,311.267670 1044.001343,313.169434 1044.189697,314.323730 
	C1044.268188,314.804840 1044.202881,315.309448 1044.202881,316.229065 
z"/>
<path fill="#666567" opacity="1.000000" stroke="none" 
	d="
M1083.221680,364.340820 
	C1082.952515,360.508026 1082.879639,357.062286 1082.888550,353.616791 
	C1082.891357,352.534027 1082.672729,351.052185 1084.371826,351.077087 
	C1085.608398,351.095215 1085.798096,352.248962 1085.802246,353.266357 
	C1085.815552,356.549438 1085.836670,359.833588 1085.764648,363.115387 
	C1085.732666,364.564819 1084.880127,365.134888 1083.221680,364.340820 
z"/>
<path fill="#191919" opacity="1.000000" stroke="none" 
	d="
M448.276001,314.125549 
	C448.738861,314.450378 448.797821,314.721069 448.924011,315.401764 
	C448.919189,316.932709 446.130463,317.503723 448.581726,319.275085 
	C448.871674,319.805420 448.908844,320.144897 448.963654,320.739868 
	C446.205872,322.792450 443.206451,322.805725 442.258179,319.497711 
	C441.035339,315.231812 444.802887,314.687622 448.276001,314.125549 
z"/>
<path fill="#191919" opacity="1.000000" stroke="none" 
	d="
M393.887695,361.303711 
	C391.404327,357.417358 392.818878,353.299561 392.525116,349.307068 
	C392.457916,348.394318 393.058960,347.779877 394.057312,347.862488 
	C394.851990,347.928192 395.125183,348.565613 395.081116,349.232971 
	C394.814941,353.260284 395.934082,357.367310 393.887695,361.303711 
z"/>
<path fill="#666567" opacity="1.000000" stroke="none" 
	d="
M1043.487183,309.061646 
	C1041.213013,309.065277 1040.449097,308.083466 1041.284668,306.253143 
	C1041.629272,305.498505 1042.478638,305.019653 1043.355835,305.476624 
	C1045.104370,306.387421 1045.298706,307.585327 1043.487183,309.061646 
z"/>
<path fill="#232323" opacity="1.000000" stroke="none" 
	d="
M469.154663,345.037659 
	C468.280182,343.392487 468.401520,342.217560 470.208832,341.928802 
	C471.399750,341.738556 472.114777,342.485687 472.097351,343.620483 
	C472.068909,345.474762 470.898407,345.701050 469.154663,345.037659 
z"/>
<path fill="#292929" opacity="1.000000" stroke="none" 
	d="
M393.294556,341.981445 
	C395.206085,341.991241 396.148376,342.764038 395.505280,344.419098 
	C395.119232,345.412659 394.069061,345.873260 393.052155,345.245087 
	C391.514160,344.295044 391.731812,343.164612 393.294556,341.981445 
z"/>
<path fill="#666567" opacity="1.000000" stroke="none" 
	d="
M766.678833,346.793274 
	C765.559387,344.884216 765.945312,343.681519 767.934326,343.422668 
	C768.812683,343.308319 769.610535,343.995178 769.687500,344.844208 
	C769.865784,346.812531 768.865173,347.557037 766.678833,346.793274 
z"/>
<path fill="#666567" opacity="1.000000" stroke="none" 
	d="
M1085.924805,346.299316 
	C1086.022095,348.190308 1085.397461,349.192841 1083.708374,348.648590 
	C1082.656494,348.309631 1082.331909,347.269165 1082.798096,346.295135 
	C1083.560669,344.701782 1084.663208,344.800323 1085.924805,346.299316 
z"/>
<path fill="#515052" opacity="1.000000" stroke="none" 
	d="
M1393.838623,324.997528 
	C1391.838135,324.893677 1391.474854,323.880676 1392.031006,322.621735 
	C1392.408325,321.767487 1393.467651,321.609283 1394.184692,322.069305 
	C1395.433838,322.870850 1395.343994,323.930725 1393.838623,324.997528 
z"/>
<path fill="#515052" opacity="1.000000" stroke="none" 
	d="
M1394.567383,314.671783 
	C1392.936890,315.282135 1391.865723,315.097534 1391.814941,313.482422 
	C1391.785889,312.552002 1392.414917,311.911163 1393.371338,311.957520 
	C1394.948486,312.033966 1395.215576,313.055206 1394.567383,314.671783 
z"/>
<path fill="#F1F1F1" opacity="1.000000" stroke="none" 
	d="
M113.304184,171.927795 
	C93.578781,169.440002 79.966118,159.437149 73.903236,140.852463 
	C68.264267,123.567169 72.226303,107.899620 85.057419,94.942024 
	C99.381821,80.476418 121.699997,77.888573 139.343002,88.202660 
	C156.649979,98.320312 165.080154,118.814049 160.024689,138.479843 
	C155.051392,157.825989 137.294907,171.741547 117.251961,171.992676 
	C116.087425,172.007263 114.922195,171.965622 113.304184,171.927795 
z"/>
<path fill="#F1F1F1" opacity="1.000000" stroke="none" 
	d="
M991.853333,129.822418 
	C991.481384,104.486504 1007.526794,85.418823 1031.479858,82.234032 
	C1053.198120,79.346367 1074.618408,93.852104 1080.091797,115.608101 
	C1084.599609,133.526093 1079.782104,149.078354 1065.842285,161.075241 
	C1052.210449,172.806992 1036.278931,175.397308 1019.656677,168.527145 
	C1002.873230,161.590424 993.634949,148.488678 991.853333,129.822418 
z"/>
<path fill="#F1F1F1" opacity="1.000000" stroke="none" 
	d="
M1305.682617,160.340210 
	C1290.839966,145.636612 1286.926880,126.202263 1294.992188,108.342865 
	C1302.715332,91.241028 1320.446533,80.757164 1339.404663,82.083282 
	C1358.164062,83.395500 1374.255127,96.791519 1379.348389,115.337006 
	C1384.374023,133.636688 1377.123901,153.341949 1361.412476,164.085938 
	C1345.604004,174.896332 1324.704590,174.617218 1309.467773,163.378036 
	C1308.262573,162.488998 1307.121948,161.512466 1305.682617,160.340210 
z"/>
<path fill="#FEFEFE" opacity="1.000000" stroke="none" 
	d="
M776.206360,123.210670 
	C777.416382,148.427582 761.428467,168.052353 737.123169,171.700684 
	C715.015625,175.019089 693.279236,159.930023 687.741333,137.420471 
	C681.450195,111.849472 698.308594,87.022507 725.077332,82.436607 
	C749.767639,78.206772 773.831848,97.191124 776.206360,123.210670 
z"/>
<path fill="#F1F1F1" opacity="1.000000" stroke="none" 
	d="
M379.012939,124.231926 
	C381.605164,98.404434 401.826630,80.747528 426.805511,82.055611 
	C450.343567,83.288231 469.152252,103.575073 468.958435,127.521194 
	C468.761261,151.881165 448.660187,171.885040 424.265717,171.997757 
	C399.472473,172.112320 379.261780,152.340286 378.975952,127.686958 
	C378.964355,126.688416 378.989227,125.689445 379.012939,124.231926 
z"/>
<path fill="#EBEBEB" opacity="1.000000" stroke="none" 
	d="
M1336.430664,361.767975 
	C1334.794312,362.304901 1333.514648,362.611023 1332.213379,362.054077 
	C1331.010376,361.539307 1330.530396,360.533661 1330.460449,359.319916 
	C1330.388672,358.071198 1330.954468,357.014465 1331.972290,356.388031 
	C1333.343506,355.544098 1334.133301,356.786621 1334.788208,357.610382 
	C1335.708374,358.767609 1337.800293,359.425446 1336.430664,361.767975 
z"/>
<path fill="#EBEBEB" opacity="1.000000" stroke="none" 
	d="
M386.641357,316.130493 
	C385.453186,320.007965 382.492981,319.431580 379.975952,319.078156 
	C377.778290,318.769592 379.002136,316.646912 378.803253,315.337341 
	C378.651489,314.338318 378.960876,313.242310 380.275482,313.207855 
	C382.725311,313.143677 385.398743,312.655487 386.641357,316.130493 
z"/>
<path fill="#F1F1F1" opacity="1.000000" stroke="none" 
	d="
M384.223999,305.281433 
	C386.225647,306.884399 386.602234,308.405365 384.780701,309.949707 
	C383.262177,311.237152 381.247437,311.421265 379.683380,310.746643 
	C377.852814,309.957092 378.563568,307.729553 378.936096,306.375977 
	C379.707123,303.574890 382.107880,305.282776 384.223999,305.281433 
z"/>
<path fill="#EBEBEB" opacity="1.000000" stroke="none" 
	d="
M1355.339355,353.335480 
	C1355.787231,351.185211 1353.765625,348.330322 1357.317261,347.915680 
	C1358.941040,347.726074 1360.694214,347.853607 1361.698486,349.475281 
	C1362.447144,350.684143 1362.480713,352.160980 1361.367920,353.068512 
	C1359.614990,354.498199 1357.658325,355.969482 1355.339355,353.335480 
z"/>
<path fill="#EBEBEB" opacity="1.000000" stroke="none" 
	d="
M1004.457581,354.268585 
	C1006.307312,352.548523 1007.944458,352.360748 1008.969788,354.503448 
	C1009.596008,355.812225 1008.993835,357.243469 1007.474731,357.515564 
	C1005.375671,357.891541 1004.011353,357.010529 1004.457581,354.268585 
z"/>
<path fill="#F1F1F1" opacity="1.000000" stroke="none" 
	d="
M1008.728821,366.987305 
	C1007.645447,367.132080 1006.981079,367.256683 1006.343689,367.173828 
	C1005.089661,367.010773 1003.241150,366.947205 1003.972168,365.074493 
	C1004.746521,363.090942 1006.852478,363.981720 1008.333374,364.140778 
	C1010.187195,364.339905 1011.173645,365.270844 1008.728821,366.987305 
z"/>
<path fill="#E1E1E1" opacity="1.000000" stroke="none" 
	d="
M1107.568726,353.249146 
	C1110.009277,352.753571 1111.716309,353.176025 1111.376221,355.774292 
	C1111.177856,357.290985 1109.808594,358.054260 1108.363159,357.569122 
	C1106.125977,356.818359 1105.589111,355.337677 1107.568726,353.249146 
z"/>
<path fill="#F4F4F4" opacity="1.000000" stroke="none" 
	d="
M1109.028564,367.202118 
	C1107.378540,366.972046 1105.694214,367.132629 1106.007202,365.211426 
	C1106.251221,363.713989 1107.698242,363.961304 1108.790405,364.026886 
	C1110.009033,364.100037 1111.762451,363.597382 1112.085205,365.251129 
	C1112.443848,367.088379 1110.666626,366.954742 1109.028564,367.202118 
z"/>
<path fill="#F4F4F4" opacity="1.000000" stroke="none" 
	d="
M81.931458,306.290955 
	C84.040230,304.179199 85.998367,304.698395 87.665024,306.317749 
	C88.675003,307.299042 88.676079,308.708832 88.105583,310.039429 
	C87.316574,311.879639 85.674957,312.319946 83.991760,312.139648 
	C80.034744,311.715820 82.504524,308.574982 81.931458,306.290955 
z"/>
<path fill="#E1E1E1" opacity="1.000000" stroke="none" 
	d="
M373.711182,353.247192 
	C371.928101,354.310120 370.140808,354.163239 368.202820,353.745300 
	C368.483337,351.241089 369.505768,349.073853 370.724701,346.551147 
	C372.635986,348.423401 372.799377,350.831787 373.711182,353.247192 
z"/>
<path fill="#E1E1E1" opacity="1.000000" stroke="none" 
	d="
M672.311768,350.006500 
	C672.914062,351.901947 674.015503,353.641388 673.650635,354.981628 
	C673.198120,356.643677 670.926758,356.097015 669.746887,355.685394 
	C667.036804,354.739807 669.130127,352.846558 669.663696,351.733276 
	C670.010742,351.008972 669.043701,347.370819 672.311768,350.006500 
z"/>
<path fill="#F4F4F4" opacity="1.000000" stroke="none" 
	d="
M750.059998,315.334656 
	C750.465637,312.739136 751.865662,311.815674 753.943420,312.132385 
	C756.056396,312.454468 756.233582,314.276550 756.290283,315.916992 
	C756.358398,317.885010 756.437439,320.296234 754.102173,320.875641 
	C749.469543,322.025055 750.107422,318.504639 750.059998,315.334656 
z"/>
<path fill="#EBEBEB" opacity="1.000000" stroke="none" 
	d="
M969.259338,354.619415 
	C967.229797,354.928558 964.961731,356.402588 964.308838,353.771973 
	C963.875305,352.025421 963.145447,349.567413 965.050842,348.249207 
	C966.381714,347.328461 968.397034,347.614655 969.718201,348.795532 
	C971.722412,350.586914 971.442871,352.566559 969.259338,354.619415 
z"/>
<path fill="#EBEBEB" opacity="1.000000" stroke="none" 
	d="
M1321.020630,320.948303 
	C1319.119141,323.353790 1316.831787,323.826080 1315.623901,321.366028 
	C1314.617798,319.316956 1314.139282,316.332123 1316.409668,314.470673 
	C1318.181641,313.017944 1320.167236,313.141235 1321.189209,315.703766 
	C1321.835327,317.323425 1321.677612,318.963379 1321.020630,320.948303 
z"/>
<path fill="#F4F4F4" opacity="1.000000" stroke="none" 
	d="
M146.164963,353.414093 
	C146.882324,350.448700 148.675781,349.301636 151.008362,350.383575 
	C153.320282,351.455963 153.194183,353.943542 152.753357,356.076599 
	C152.357513,357.992035 151.152527,359.406982 148.926331,359.153168 
	C145.450439,358.756836 146.262726,356.028198 146.164963,353.414093 
z"/>
<path fill="#F4F4F4" opacity="1.000000" stroke="none" 
	d="
M740.848083,319.439575 
	C738.784363,321.764618 736.765991,321.806458 735.250854,319.630035 
	C733.822266,317.577881 733.955688,315.158630 735.496216,313.139343 
	C737.032959,311.125275 740.087708,311.745117 741.041260,314.191101 
	C741.660767,315.779999 741.537231,317.433899 740.848083,319.439575 
z"/>
<path fill="#F1F1F1" opacity="1.000000" stroke="none" 
	d="
M137.229706,310.193298 
	C141.384613,310.585632 141.321503,313.343506 141.166107,316.098236 
	C141.072937,317.750061 140.267883,318.996033 138.557449,319.312164 
	C136.966385,319.606232 135.480011,319.233643 134.824783,317.581390 
	C133.674576,314.681030 133.770386,312.033386 137.229706,310.193298 
z"/>
<path fill="#E1E1E1" opacity="1.000000" stroke="none" 
	d="
M447.373322,357.787964 
	C447.632507,357.175934 447.818268,356.871643 448.088013,356.697418 
	C449.525330,355.769257 451.128204,355.137268 452.646637,356.208649 
	C453.333801,356.693451 452.951935,357.786011 452.238586,358.345123 
	C450.578949,359.645905 448.869049,360.803894 447.373322,357.787964 
z"/>
<path fill="#F4F4F4" opacity="1.000000" stroke="none" 
	d="
M719.828308,316.963959 
	C719.900940,313.669281 720.893433,311.334167 724.244446,312.171265 
	C727.091431,312.882446 727.120361,315.527008 726.754944,317.926361 
	C726.486938,319.686646 725.601685,321.089172 723.550415,321.146545 
	C720.999023,321.217896 720.057434,319.648041 719.828308,316.963959 
z"/>
<path fill="#EBEBEB" opacity="1.000000" stroke="none" 
	d="
M1372.714966,356.142090 
	C1370.827881,353.478851 1372.976074,353.375519 1374.537231,353.089874 
	C1375.796875,352.859497 1377.125122,353.709930 1376.979492,354.818665 
	C1376.650146,357.324432 1374.434326,355.740204 1372.714966,356.142090 
z"/>
<path fill="#EBEBEB" opacity="1.000000" stroke="none" 
	d="
M1029.727051,359.436737 
	C1031.113281,359.221680 1032.429688,358.337372 1033.004150,359.869995 
	C1033.385010,360.885986 1032.746094,361.721313 1031.776367,362.234161 
	C1030.726929,362.789215 1029.619751,363.269501 1028.638550,362.273743 
	C1027.448853,361.066528 1028.315186,360.270569 1029.727051,359.436737 
z"/>
<path fill="#EBEBEB" opacity="1.000000" stroke="none" 
	d="
M100.899902,352.914124 
	C99.656776,352.691040 98.223946,353.397949 98.138741,352.019104 
	C98.036240,350.360291 99.450264,349.974579 100.839256,349.952820 
	C102.261948,349.930511 103.619652,350.426453 103.599754,352.004425 
	C103.581741,353.433105 102.120827,352.674408 100.899902,352.914124 
z"/>
<path fill="#EBEBEB" opacity="1.000000" stroke="none" 
	d="
M401.770813,316.454590 
	C400.987335,318.766998 399.715088,319.892700 397.556091,319.482117 
	C395.923248,319.171570 395.031616,318.063385 394.665344,316.450653 
	C394.194214,314.376312 394.467773,312.489227 396.027527,310.969086 
	C397.075775,309.947449 398.421478,309.729553 399.691925,310.435242 
	C401.933350,311.680176 402.024811,313.850403 401.770813,316.454590 
z"/>
<path fill="#EBEBEB" opacity="1.000000" stroke="none" 
	d="
M1264.077881,356.172791 
	C1262.638184,356.008575 1261.107300,356.728577 1260.680054,355.502380 
	C1260.257812,354.290558 1261.475586,353.506897 1262.612427,353.194336 
	C1263.958740,352.824219 1265.241333,353.044067 1265.885986,354.452667 
	C1266.510742,355.817719 1265.519409,356.058350 1264.077881,356.172791 
z"/>
<path fill="#E1E1E1" opacity="1.000000" stroke="none" 
	d="
M431.935120,310.923950 
	C433.006378,310.424438 433.801025,310.017059 434.571564,310.058563 
	C435.794739,310.124420 437.002563,310.751617 436.851898,312.148285 
	C436.663177,313.898041 435.028900,313.298157 434.084595,313.170776 
	C433.065582,313.033325 430.449982,314.291412 431.935120,310.923950 
z"/>
<path fill="#E1E1E1" opacity="1.000000" stroke="none" 
	d="
M1428.447021,356.147491 
	C1426.704102,355.772614 1424.381958,357.436157 1424.144531,354.870636 
	C1424.016846,353.490936 1425.696533,352.829315 1427.107544,353.058411 
	C1428.768677,353.328156 1430.336914,353.887726 1428.447021,356.147491 
z"/>
<path fill="#E1E1E1" opacity="1.000000" stroke="none" 
	d="
M1302.873291,323.015747 
	C1300.370972,320.899658 1302.130493,320.085571 1303.698242,319.437225 
	C1304.726929,319.011841 1306.292847,318.649963 1306.510376,320.279022 
	C1306.805054,322.484344 1305.027222,322.915497 1302.873291,323.015747 
z"/>
<path fill="#F4F4F4" opacity="1.000000" stroke="none" 
	d="
M1055.977295,321.730408 
	C1053.697388,323.400482 1051.855713,323.162170 1050.661377,321.039948 
	C1049.535034,319.038574 1049.670654,316.882965 1050.953613,314.907867 
	C1051.667969,313.808044 1052.788696,313.574097 1054.009033,313.696136 
	C1055.516968,313.846924 1056.481201,314.767975 1056.789185,316.152588 
	C1057.185181,317.932739 1057.364380,319.769684 1055.977295,321.730408 
z"/>
<path fill="#E1E1E1" opacity="1.000000" stroke="none" 
	d="
M1383.225586,313.372833 
	C1384.982178,313.591675 1386.358765,314.187592 1386.094971,315.732513 
	C1385.846802,317.186554 1384.257690,316.768768 1383.208862,316.713501 
	C1382.199585,316.660248 1380.577026,317.393646 1380.335571,315.868164 
	C1380.099487,314.377319 1381.573608,313.801849 1383.225586,313.372833 
z"/>
<path fill="#EBEBEB" opacity="1.000000" stroke="none" 
	d="
M412.204742,310.168640 
	C416.174561,311.479919 417.586975,314.627319 416.003357,317.643890 
	C415.315674,318.953735 414.234375,319.634369 412.811584,319.566559 
	C411.420929,319.500214 410.286438,318.861572 409.718292,317.474457 
	C408.500244,314.500580 408.910858,312.004730 412.204742,310.168640 
z"/>
<path fill="#EBEBEB" opacity="1.000000" stroke="none" 
	d="
M1276.897949,362.694275 
	C1274.824707,362.741119 1273.286011,362.296875 1274.666138,360.261047 
	C1275.503052,359.026703 1277.460327,358.330170 1278.554443,359.342896 
	C1280.061523,360.737976 1278.630127,361.842712 1276.897949,362.694275 
z"/>
<path fill="#F4F4F4" opacity="1.000000" stroke="none" 
	d="
M775.072998,356.794556 
	C775.063049,353.814484 775.743713,351.713318 778.842712,351.728729 
	C781.065491,351.739777 782.053772,353.192535 782.206055,355.241058 
	C782.383362,357.625732 782.375366,360.146851 779.393677,360.749420 
	C776.792542,361.275024 775.408081,359.740906 775.072998,356.794556 
z"/>
<path fill="#F1F1F1" opacity="1.000000" stroke="none" 
	d="
M714.218750,360.246704 
	C710.109192,361.798767 708.610352,359.710785 708.418213,356.438873 
	C708.276306,354.022095 709.051025,351.684570 712.134827,351.700958 
	C715.172119,351.717163 715.812500,353.892365 715.871765,356.427246 
	C715.904175,357.816467 715.446106,358.994476 714.218750,360.246704 
z"/>
<path fill="#E1E1E1" opacity="1.000000" stroke="none" 
	d="
M1084.582764,321.679016 
	C1082.837036,323.043457 1081.193604,324.111389 1079.930054,321.873901 
	C1079.380615,320.901062 1080.311035,320.068817 1081.310425,319.748657 
	C1082.927124,319.230682 1084.915161,318.062683 1084.582764,321.679016 
z"/>
<path fill="#EBEBEB" opacity="1.000000" stroke="none" 
	d="
M989.248169,357.954285 
	C989.541626,355.045746 990.401062,352.827393 993.434326,353.167114 
	C996.066956,353.461945 996.766724,355.707031 996.795227,357.958954 
	C996.821899,360.061310 996.062500,362.032104 993.672241,362.396393 
	C990.700256,362.849365 989.516357,361.010101 989.248169,357.954285 
z"/>
<path fill="#E1E1E1" opacity="1.000000" stroke="none" 
	d="
M747.531494,357.414368 
	C749.131592,357.104431 750.287415,357.148132 750.229736,358.801758 
	C750.182983,360.143890 749.124084,360.673248 747.997009,361.005890 
	C747.002869,361.299347 745.869812,361.248932 745.401672,360.320190 
	C744.562500,358.655273 745.972168,358.098450 747.531494,357.414368 
z"/>
<path fill="#EBEBEB" opacity="1.000000" stroke="none" 
	d="
M1357.566162,316.604126 
	C1357.863281,320.032379 1357.493774,323.058990 1353.535889,322.785889 
	C1350.261963,322.559998 1349.989258,319.726288 1350.283081,317.097992 
	C1350.477783,315.355988 1351.343262,313.908997 1353.279663,313.580811 
	C1355.431885,313.216064 1356.758423,314.258331 1357.566162,316.604126 
z"/>
<path fill="#E1E1E1" opacity="1.000000" stroke="none" 
	d="
M449.043396,319.211975 
	C447.422485,319.793701 445.529388,320.710999 445.018311,318.712738 
	C444.430267,316.413361 446.632690,316.310669 448.606232,315.889374 
	C450.835297,316.714752 450.183380,317.824768 449.043396,319.211975 
z"/>
</svg>